<?xml version="1.0" encoding="utf-8"?>
<!-- Generator: Adobe Illustrator 19.0.0, SVG Export Plug-In . SVG Version: 6.00 Build 0)  -->
<svg version="1.1" id="图层_1" xmlns="http://www.w3.org/2000/svg" xmlns:xlink="http://www.w3.org/1999/xlink" x="0px" y="0px"
	 viewBox="0 0 20 20" style="enable-background:new 0 0 20 20;" xml:space="preserve">
<style type="text/css">
	.st0{fill:#CCCCCC;}
</style>
<g id="XMLID_53_">
	<path id="XMLID_60_" class="st0" d="M10.3,0.6H9.7c-2.3,0-4.3,1.9-4.3,4.3v1.5H5.1c-1.3,0-2.3,1-2.3,2.3v8.1c0,1.3,1,2.3,2.3,2.3
		h9.9c1.3,0,2.3-1,2.3-2.3V8.7c0-1.3-1-2.3-2.3-2.3H6.8V4.9C6.8,3.3,8.1,2,9.7,2h0.6c1.6,0,2.9,1.3,2.9,2.9v0.7
		c0,0.2,0.1,0.4,0.3,0.6l0.3,0.2l0.3-0.2c0.2-0.1,0.3-0.3,0.3-0.6V4.9C14.6,2.5,12.7,0.6,10.3,0.6z M14.9,7.8c0.5,0,1,0.4,1,1v8.1
		c0,0.5-0.4,1-1,1H5.1c-0.5,0-1-0.4-1-1V8.7c0-0.5,0.4-1,1-1H14.9z"/>
	<path id="XMLID_54_" class="st0" d="M8.7,13.8c0,0.7,0.6,1.4,1.4,1.4c0.7,0,1.4-0.6,1.4-1.4c0-0.4-0.2-0.8-0.6-1.1l-0.1,0v-2.1H9.3
		v2.1l-0.1,0C8.9,12.9,8.7,13.3,8.7,13.8z"/>
</g>
</svg>
