<?xml version="1.0" encoding="utf-8"?>
<!-- Generator: Adobe Illustrator 19.0.0, SVG Export Plug-In . SVG Version: 6.00 Build 0)  -->
<svg version="1.1" id="图层_1" xmlns="http://www.w3.org/2000/svg" xmlns:xlink="http://www.w3.org/1999/xlink" x="0px" y="0px"
	 viewBox="0 0 20 20" style="enable-background:new 0 0 20 20;" xml:space="preserve">
<style type="text/css">
	.st0{fill:#CCCCCC;}
</style>
<g id="XMLID_63_">
	<g id="XMLID_66_">
		<path id="XMLID_59_" class="st0" d="M10,10.8c-2.8,0-5.1-2.3-5.1-5.1S7.2,0.6,10,0.6s5.1,2.3,5.1,5.1S12.8,10.8,10,10.8z M10,1.8
			c-2.2,0-4,1.8-4,4c0,2.2,1.8,4,4,4c2.2,0,4-1.8,4-4C14,3.5,12.2,1.8,10,1.8z"/>
	</g>
	<g id="XMLID_64_">
		<path id="XMLID_58_" class="st0" d="M18.4,19.2c-0.3,0-0.6-0.2-0.6-0.6c0-4.3-3.5-7.8-7.8-7.8c-4.3,0-7.8,3.5-7.8,7.8
			c0,0.3-0.2,0.6-0.6,0.6s-0.6-0.2-0.6-0.6c0-4.9,4-8.9,8.9-8.9c4.9,0,8.9,4,8.9,8.9C18.9,18.9,18.7,19.2,18.4,19.2z"/>
	</g>
</g>
</svg>
