<?xml version="1.0" encoding="utf-8"?>
<!-- Generator: Adobe Illustrator 19.0.0, SVG Export Plug-In . SVG Version: 6.00 Build 0)  -->
<svg version="1.1" id="图层_1" xmlns="http://www.w3.org/2000/svg" xmlns:xlink="http://www.w3.org/1999/xlink" x="0px" y="0px"
	 viewBox="-212 335.8 170.1 170.1" style="enable-background:new -212 335.8 170.1 170.1;" xml:space="preserve">
<style type="text/css">
	.st0{fill:none;stroke:#F6697A;stroke-width:7;stroke-miterlimit:10;}
</style>
<path class="st0" d="M-69.6,438.1h-41c0,4.7-3.6,8.2-8.2,8.2h-16.3c-4.7,0-8.2-3.6-8.2-8.2h-41.2v33c0,4.7,3.6,8.2,8.2,8.2h98.9
	c4.7,0,8.2-3.6,8.2-8.2h-0.4V438.1z"/>
<path class="st0" d="M-77.3,388.6h-24.8v-8.2c0-4.7-3.6-8.2-8.2-8.2h-33c-4.7,0-8.2,3.6-8.2,8.2v8.2h-24.8c-4.7,0-8.2,3.6-8.2,8.2
	v33h41.1c0-4.7,3.6-8.2,8.2-8.2h16.3c4.7,0,8.2,3.6,8.2,8.2h41.5V397C-69.6,392.4-73.1,388.8-77.3,388.6z"/>
</svg>
