<?xml version="1.0" encoding="utf-8"?>
<!-- Generator: Adobe Illustrator 19.0.0, SVG Export Plug-In . SVG Version: 6.00 Build 0)  -->
<svg version="1.1" id="图层_1" xmlns="http://www.w3.org/2000/svg" xmlns:xlink="http://www.w3.org/1999/xlink" x="0px" y="0px"
	 viewBox="-212 335.8 170.1 170.1" style="enable-background:new -212 335.8 170.1 170.1;" xml:space="preserve">
<style type="text/css">
	.st0{fill:#F2112D;}
	.st1{fill:#FFFF00;}
</style>
<path class="st0" d="M-65.6,432.1c-0.8,0.5-1.7,0.9-2.6,1.2c-0.7,0.2-1,0.6-0.9,1.2c0.4,2.3,0.8,4.6,1.4,6.7c0.6,1.4,0,3.1-1.3,3.8
	c-0.7,0.5-1.4,0.9-2.2,1.3l0.5,0.4c3.2,2.1,3.5,4.3,1.3,7.1c-1,1.2-1.4,2.9-1,4.5c0.2,0.9,0.3,1.8,0.3,2.7c-0.2,2.7-4.8,5.1-8,4.4
	c-1.4-0.3-2.8-0.5-4.2-0.7c-2.6-0.4-5.3-0.2-7.9,0.4c-1.4,0.3-2.6,1.6-2.8,3.1c-0.3,1.5-0.5,3-0.5,4.5c-0.2,4.6-0.3,9.2-0.5,13.7
	c0,0.4-0.1,0.9-0.2,1.3h-61.2c-1,0-1.9-0.8-1.9-1.9l0,0v-11.9c-0.1-2.3-0.4-4.6-0.9-6.9c-2-9-6.4-17.1-12.7-23.6
	c-3.7-4.1-7.1-8.6-10.1-13.4c-1-1.6-2-3.3-3.2-4.7c-2.2-3.1-3.8-6.8-4.5-10.6c-0.6-2.6-0.9-5.3-1.3-8v-5.2c0.1-0.3,0.2-0.6,0.2-1
	c0.3-5.8,1.9-11.4,4.5-16.5c4.2-8.3,10.6-15.2,18.4-19.7c10.2-5.6,21.3-9,32.7-9.9c1.8-0.2,3.7-0.5,5.5-0.5h6.4c0.5,0,1,0.2,1.5,0.2
	c9.7,0.3,19.2,2.5,28.2,6.5c2.8,1.3,5.5,2.9,8.2,4.4v0.3l-2.7,1c4.5,3.7,8.4,8.2,11.5,13.3l-3.2,1.9c0.4,0.7,0.7,1.3,1,1.9
	c3.3,6,5.8,12.3,7.5,19c0.6,1.7,0.4,3.5-0.6,4.9c-0.4,0.7-0.5,1.4-0.3,2.2c0.4,1.7,0.9,3.4,1.6,5.1c1.7,4.5,3.6,9.1,5.4,13.6
	c0.6,1.6,0.2,2.6-1.4,3.5V432.1z"/>
<polyline class="st1" points="-133.9,406.6 -115.3,420.9 -107.9,412.8 -125,399.7 -107.9,386.5 -115.3,378.4 -133.9,392.7 
	-152.4,378.4 -160.1,386.5 -142.9,399.6 -160.1,412.8 -152.4,420.9 -133.8,406.6 "/>
</svg>
