<?xml version="1.0" encoding="utf-8"?>
<!-- Generator: Adobe Illustrator 19.0.0, SVG Export Plug-In . SVG Version: 6.00 Build 0)  -->
<svg version="1.1" id="图层_1" xmlns="http://www.w3.org/2000/svg" xmlns:xlink="http://www.w3.org/1999/xlink" x="0px" y="0px"
	 viewBox="-123.9 335.9 170.1 170.1" style="enable-background:new -123.9 335.9 170.1 170.1;" xml:space="preserve">
<style type="text/css">
	.st0{fill:#F4EE2A;}
</style>
<path d="M-39.4,496.7c-2,0-4-0.5-5.8-1.6l-37.3-21.7c-0.1-0.1-0.3-0.2-0.4-0.2c-3.1-1.5-10.5-5.7-10.5-11.7V358.7v-0.6
	c0.2-4,2.4-7.5,5.8-9.4c3.6-1.9,7.8-1.9,11.4,0.2l37.3,21.7c0.1,0.1,0.3,0.1,0.4,0.2c3.1,1.5,10.5,5.7,10.5,11.7v103.3
	c-0.2,3.9-2.4,7.5-5.9,9.4C-35.7,496.2-37.5,496.7-39.4,496.7z"/>
<path class="st0" d="M-82,353.9c-0.8,0-1.7,0.2-2.4,0.6c-1.5,0.8-2.4,2.2-2.5,3.9v103c0,1.4,3.1,4.1,6.8,5.9
	c0.3,0.1,0.6,0.3,0.8,0.4l37.3,21.7c1.5,0.9,3.4,0.9,5,0c1.5-0.8,2.4-2.3,2.5-3.9v-103c0-1.4-3.1-4.1-6.8-5.9
	c-0.3-0.1-0.6-0.3-0.8-0.4l-37.3-21.7C-80.3,354.1-81.2,353.9-82,353.9z"/>
<path d="M-2.7,474.6h-27.7c-1.8,0-3.3-1.5-3.3-3.3s1.5-3.3,3.3-3.3h27.7c3.1,0,5.7-2.5,5.7-5.7c0,0,0,0,0,0V359.6
	c0-3.1-2.5-5.7-5.7-5.7h-77.2c-1.8,0-3.3-1.5-3.3-3.3c0-1.8,1.5-3.3,3.3-3.3h77.2c6.7,0,12.2,5.5,12.2,12.2v102.7
	C9.5,469.1,4.1,474.6-2.7,474.6z"/>
<path d="M-46.4,447.7c-0.2,0-0.3,0-0.5-0.1l-2.4-0.6c-2.5-0.2-4.5-2.2-4.5-4.8v-33.9c0-2.7,2.2-4.8,4.8-4.8c0.2,0,0.3,0,0.5,0.1
	l2.4,0.6c2.5,0.2,4.5,2.2,4.5,4.8v33.9C-41.5,445.5-43.7,447.7-46.4,447.7z M-49.2,407.8c-0.2,0.1-0.3,0.3-0.3,0.5v33.9
	c0,0.3,0.2,0.5,0.5,0.5c0.2,0,0.3,0,0.5,0.1l2.3,0.6c0.2-0.1,0.3-0.3,0.3-0.5V409c0-0.3-0.2-0.5-0.5-0.5c-0.2,0-0.3,0-0.5-0.1
	C-46.9,408.4-49.2,407.8-49.2,407.8z"/>
</svg>
