<?xml version="1.0" encoding="utf-8"?>
<!-- Generator: Adobe Illustrator 19.0.0, SVG Export Plug-In . SVG Version: 6.00 Build 0)  -->
<svg version="1.1" id="图层_1" xmlns="http://www.w3.org/2000/svg" xmlns:xlink="http://www.w3.org/1999/xlink" x="0px" y="0px"
	 viewBox="-212 335.8 170.1 170.1" style="enable-background:new -212 335.8 170.1 170.1;" xml:space="preserve">
<style type="text/css">
	.st0{fill:#2E29ED;}
	.st1{fill:#D81E06;}
</style>
<path class="st0" d="M-129.1,353.7c2.3,0.7,4.6,1.3,6.9,2.1c13.2,4.8,21.6,17.8,20,31c-1.6,13.8-13.1,25-27.3,26.6
	c-16.1,1.8-30.7-7.4-34.8-21.9c-4.7-16.7,6.5-34,24.1-37.3c0.8-0.1,1.5-0.4,2.2-0.6C-135,353.7-132.1,353.7-129.1,353.7z"/>
<path class="st1" d="M-131.5,487.9c-2.4-1.3-4.3-3-3.6-6.1c0.7-3,3-3.7,6.4-3.9c-1.6-2.1-3-3.9-4.4-5.8c1.9-1.6,3.6-3.2,5.6-4.9
	c9.6,8.8,20.7,11.7,33.9,7.4c-7.3-6.7-14.3-13.2-21.5-19.8c-0.9,1-2.6,2.8-4.2,4.6c-3.1-3.2-6.1-6.2-8.9-9.1
	c4.6-4.6,9.6-9.8,14.8-14.8c0.6-0.6,1.8-0.6,2.7-0.6c1.4-0.1,2.7,0,4.1-0.2c1.3-0.2,2.6-0.7,3.9-1c0.2,0,0.6,0.2,0.8,0.4
	c1.5,1.4,2.9,2.8,4.3,4.1c-2.6,2.8-5.1,5.3-6.9,7.2c6.4,6.9,12.9,13.9,19.6,21c2.9-2.9,3.3-5.9,3.4-8.9c0.6-13.4-5.8-23-17.4-29.5
	c-0.7-0.4-1.4-0.7-2.1-1.1c-0.1,0-0.1-0.2-0.1-0.2c4.6-0.7,12.8,1.7,18.4,5.5c6.8,4.7,10.9,11.1,12.5,19c0.1,0.6,0.4,1.3,0.6,1.9
	c0,2.5,0,5,0,7.5c-1.8,4.7-3.5,9.3-5.7,15c1.2,0.9,3.1,2.3,4.9,3.7c-2.9,3.2-5.5,6-8.1,8.8c-0.2,0-0.4,0-0.6,0
	c-1.4-1.4-2.7-3-4.2-4.3c-0.5-0.5-1.6-0.7-2.3-0.5c-4.5,1.5-9,3.2-13.5,4.8c-2.7,0-5.5,0-8.2,0c-5.6-1.9-11.3-3.8-16.3-5.6
	c-1.5,1.8-3.2,3.7-4.8,5.6C-129.5,487.9-130.5,487.9-131.5,487.9z"/>
<path class="st0" d="M-138.1,450.1c1.7,2.5,3.2,4.5,4.5,6.8c0.5,0.8,0.6,2.2,0.2,3c-3.9,7.9-7.9,15.7-11.9,23.6
	c-0.4,0.7-1.4,1.7-2,1.6c-9.1-0.4-18.2-0.5-27.1-1.8c-8.2-1.2-10.1-4.2-9.8-12.2c0.4-14.4,3.8-27.8,13.7-39
	c6.7-7.6,15.4-11.3,25.6-11.4c8.4-0.1,16.8,0,25.2,0c1.4,0,2.7,0.2,4,0.5c3.7,0.8,4.5,2.8,2.1,5.7c-1.5,1.9-3.4,3.4-5.1,5.1
	C-125.2,438.1-131.6,444.1-138.1,450.1z"/>
</svg>
