<?xml version="1.0" encoding="utf-8"?>
<!-- Generator: Adobe Illustrator 19.0.0, SVG Export Plug-In . SVG Version: 6.00 Build 0)  -->
<svg version="1.1" id="图层_1" xmlns="http://www.w3.org/2000/svg" xmlns:xlink="http://www.w3.org/1999/xlink" x="0px" y="0px"
	 viewBox="-212 335.8 170.1 170.1" style="enable-background:new -212 335.8 170.1 170.1;" xml:space="preserve">
<style type="text/css">
	.st0{fill:#E5981C;}
</style>
<path class="st0" d="M-63.6,406.2c-0.7-2.2-2.8-3.8-5.5-4.2l-36-5.2l-16.1-32.3c-1.2-2.4-3.3-3.9-5.7-3.9c-2.4,0-4.5,1.4-5.7,3.9
	l-16.1,32.3l-36,5.2c-2.7,0.4-4.7,2-5.5,4.2c-0.7,2.2,0,4.7,1.9,6.6l26.1,25.1l-6.2,35.5c-0.4,2.1,0.1,4.1,1.3,5.5
	c1.1,1.3,2.7,2,4.5,2c1.1,0,2.3-0.3,3.4-0.9l32.2-16.8l32.2,16.8c2.9,1.5,6.1,1,7.9-1.1c1.2-1.4,1.7-3.4,1.3-5.5l-4.6-26.4
	c-9.5-1.1-22.6-5.3-33.4-18.5c11.2,7.6,22.6,9.6,31.8,9.6l0-0.3l7.2-6.9c-4.2-1.5-8.6-4.3-9.8-9.8c1.8,4.6,8,6.1,13.2,6.6l15.6-15
	C-63.6,410.9-62.9,408.5-63.6,406.2z"/>
</svg>
