<?xml version="1.0" encoding="utf-8"?>
<!-- Generator: Adobe Illustrator 19.0.0, SVG Export Plug-In . SVG Version: 6.00 Build 0)  -->
<svg version="1.1" id="图层_1" xmlns="http://www.w3.org/2000/svg" xmlns:xlink="http://www.w3.org/1999/xlink" x="0px" y="0px"
	 viewBox="-127 378.9 340.2 85" style="enable-background:new -127 378.9 340.2 85;" xml:space="preserve">
<style type="text/css">
	.st0{fill:#191919;}
	.st1{fill:#F25220;}
</style>
<g id="XMLID_154_">
	<path id="XMLID_155_" class="st0" d="M-104.5,427.4h16.3v8.4h-2V435h-2.5v4.5c0,0.6,0.1,1.1,0.3,1.3c0.2,0.3,0.8,0.4,1.7,0.4h2.3
		c1.3,0,2.1-0.4,2.3-1.2c0.3-0.9,0.5-2,0.7-3.5c0.6,0.3,1.3,0.5,2,0.7c-0.2,1.4-0.5,2.5-0.8,3.5c-0.5,1.6-1.8,2.4-3.8,2.4h-3.1
		c-1.3,0-2.2-0.2-2.7-0.7c-0.6-0.5-0.9-1.4-0.9-2.7V435h-3.5c-0.3,2.5-1.2,4.4-2.8,5.8c-1.5,1.2-3.6,2.2-6.5,3.1
		c-0.4-0.7-0.8-1.4-1.3-1.9c3-0.7,5.1-1.6,6.5-2.8c1.1-1,1.8-2.4,2-4.1h-2.2v0.8h-2V427.4z M-108.3,423h10.9v-5.1h2v5.1h10.9v5.8
		h-1.9v-4h-19.9v4h-1.9L-108.3,423L-108.3,423z M-105.8,419.6l1.2-1.4c1.3,0.9,2.6,1.8,4,2.7l-1.4,1.5
		C-103.3,421.5-104.5,420.5-105.8,419.6z M-90.2,429.2h-12.3v4h12.3V429.2z M-92,421c1.4-0.9,2.8-1.9,4.1-3l1.5,1.5
		c-1.5,1.1-3,2.1-4.4,3L-92,421z"/>
</g>
<g id="XMLID_149_">
	<path id="XMLID_150_" class="st0" d="M-76.2,417.5l2,0.8c-0.4,0.6-0.8,1.3-1.2,1.9h14.2v1.8c-1.6,2-3.8,3.7-6.7,5.2
		c2.9,1.1,6.4,1.7,10.5,2c-0.6,0.8-1,1.5-1.5,2.2c-4.5-0.6-8.4-1.6-11.4-3c-3.5,1.5-7.7,2.6-12.6,3.5c-0.3-0.5-0.7-1.2-1.1-1.8
		c4.4-0.7,8.2-1.6,11.4-2.9c-2-1.2-3.6-2.6-4.8-4.3c-1.4,1.6-2.8,3.1-4.5,4.5c-0.5-0.6-1-1-1.4-1.4
		C-80.2,423.3-77.8,420.5-76.2,417.5z M-81.7,432.9h7.6c0.1-0.8,0.2-1.8,0.3-2.8h2.1c-0.1,1-0.2,2-0.4,2.8h10.6
		c-0.2,3.1-0.3,5.3-0.5,6.6c-0.3,2.5-1.7,3.7-4.4,3.7c-1,0-2.6,0-4.6-0.1c-0.1-0.6-0.2-1.4-0.4-2.2c2,0.2,3.7,0.3,5,0.3
		c1.5,0,2.3-0.8,2.5-2.3c0.2-1.3,0.3-2.7,0.3-4.2h-8.7c-0.9,4.2-4.2,7.2-9.8,9.1c-0.4-0.6-0.8-1.2-1.3-1.8c5-1.6,8-4.1,8.9-7.4h-7.3
		v-1.7H-81.7z M-64.1,422h-11.7c1.4,1.7,3.2,3.1,5.4,4.2C-67.9,425-65.8,423.6-64.1,422z"/>
</g>
<g id="XMLID_147_">
	<path id="XMLID_148_" class="st0" d="M-109,443.5c-0.3,0-0.5-0.1-0.7-0.3c-6.3-6.6-9.7-15.2-9.7-24.3c0-19.4,15.8-35.2,35.2-35.2
		S-49,399.5-49,418.9c0,8.7-3.2,17-8.9,23.4c-0.4,0.4-1,0.4-1.4,0.1c-0.4-0.4-0.4-1-0.1-1.4c5.4-6.1,8.4-14,8.4-22.1
		c0-18.3-14.9-33.3-33.3-33.3s-33.2,14.9-33.2,33.3c0,8.6,3.3,16.7,9.2,23c0.4,0.4,0.4,1,0,1.4C-108.5,443.4-108.7,443.5-109,443.5z
		"/>
</g>
<g>
	<path id="XMLID_234_" class="st1" d="M-107.8,398.6h5.8c0.1-0.8,0.2-1.7,0.3-2.8h-2.6c-0.7,1-1.5,1.9-2.4,2.7
		c-0.3-0.5-0.7-1-1.2-1.6c1.8-1.5,3.1-3.3,3.8-5.4l1.9,0.4c-0.3,0.8-0.6,1.5-1,2.2h7.8v1.7h-4.3c-0.1,1-0.1,2-0.2,2.8h5.4v1.7h-5.7
		c-0.1,0.2-0.1,0.3-0.2,0.5c1.7,0.9,3.6,1.9,5.7,3.1l-1.2,1.5c-1.9-1.2-3.6-2.2-5.3-3.1c-1.2,1.8-3.2,3.4-5.9,4.5
		c-0.3-0.5-0.7-1.1-1.2-1.8c3.1-1.2,5.1-2.7,5.9-4.8h-5.4C-107.8,400.2-107.8,398.6-107.8,398.6z"/>
	<g id="XMLID_206_">
		<path id="XMLID_167_" class="st1" d="M-103.9,405.7v11.9h1.9v-1.2h13.7v1.2h1.9v-11.9H-103.9z M-88.3,414.7H-102v-2.9h13.7V414.7z
			 M-88.3,410.2H-102v-2.9h13.7V410.2z"/>
	</g>
	<g id="XMLID_166_">
		<path id="XMLID_140_" class="st1" d="M-84.3,400.2h5.4v-1.7h-4.2v-1.4h4.2v-1.7h-4.8V394h4.8v-1.9h1.8v1.9h4.4v1.4h-4.4v1.7h4.1
			v1.4h-4.1v1.7h4.6v1.4h-4.6v0.9h-1.8v-0.9h-5.4V400.2z M-81.3,411.7l1.8,0.8c-0.9,1.6-1.9,3.1-3,4.3c-0.4-0.3-0.9-0.6-1.6-1.1
			C-83,414.5-82.1,413.2-81.3,411.7z M-81.8,409.5h17.6v-1.7H-81v-1.4h16.8v-1.7h-17.6v-1.5h19.5v8.3h-1.9v-0.7h-17.6
			C-81.8,410.8-81.8,409.5-81.8,409.5z M-78,411.7h2v2.9c0,0.6,0.4,1,1.1,1h5.4c1.2,0,1.9-0.2,2.3-0.6s0.6-1.3,0.6-2.5
			c0.6,0.2,1.3,0.5,2,0.8c-0.2,1.6-0.7,2.7-1.3,3.2c-0.5,0.4-1.6,0.7-3.1,0.7h-6.5c-1.7,0-2.5-0.8-2.5-2.5V411.7z M-73.5,411.8
			l1.4-0.9c0.8,0.7,1.5,1.5,2.3,2.3l-1.5,1.1C-72,413.4-72.7,412.6-73.5,411.8z M-71.5,400.2h4.2v-1.7h-3.4v-1.4h3.4v-1.7h-4V394h4
			v-1.8h1.8v1.9h5.2v1.4h-5.2v1.7h4.6v1.4h-4.6v1.6h5.6v1.4h-5.6v0.9h-1.8v-0.9h-4.2V400.2z M-63.4,412.9l1.5-1.1
			c1.1,1.3,2.1,2.6,3,3.8l-1.6,1.2C-61.5,415.4-62.4,414.1-63.4,412.9z"/>
	</g>
	<g id="XMLID_131_">
		<path id="XMLID_134_" class="st1" d="M-87,391.5h-6.3c-0.4,0-0.7,0.3-0.7,0.7v12.2c0,0.4,0.3,0.7,0.7,0.7h6.3
			c0.4,0,0.7-0.3,0.7-0.7v-12.2C-86.4,391.8-86.6,391.5-87,391.5z M-90.2,404.7c-0.3,0-0.6-0.3-0.6-0.6c0-0.3,0.3-0.6,0.6-0.6
			c0.3,0,0.6,0.3,0.6,0.6S-89.8,404.7-90.2,404.7z M-87.1,403c0,0.1-0.1,0.2-0.2,0.2h-5.8c-0.1,0-0.2-0.1-0.2-0.2v-10.5
			c0-0.1,0.1-0.2,0.2-0.2h5.8c0.1,0,0.2,0.1,0.2,0.2V403z"/>
	</g>
</g>
<g id="XMLID_25_">
	<path id="XMLID_187_" class="st0" d="M-57.2,459.1h-53.5c-4,0-7.2-3.2-7.2-7.2s3.2-7.2,7.2-7.2h53.5c4,0,7.2,3.2,7.2,7.2
		C-50,455.8-53.2,459.1-57.2,459.1z M-110.7,446.1c-3.2,0-5.8,2.6-5.8,5.8c0,3.2,2.6,5.8,5.8,5.8h53.5c3.2,0,5.8-2.6,5.8-5.8
		c0-3.2-2.6-5.8-5.8-5.8H-110.7z"/>
</g>
<g id="XMLID_24_">
	<path id="XMLID_160_" class="st0" d="M-106.5,454.7h3.4v-4.9h-3v-1.2h7.4v1.2h-3v4.9h3.5v1.2h-8.3V454.7z"/>
	<path id="XMLID_172_" class="st0" d="M-92.3,448l1.1,0.3c-0.2,0.6-0.4,1.1-0.6,1.7v6.4H-93v-4.1c-0.2,0.4-0.5,0.8-0.7,1.1
		c-0.1-0.4-0.2-1-0.3-1.6C-93.2,450.7-92.7,449.5-92.3,448z M-85.9,452.5h-2.3v1h2.5v1.1h-2.5v1.7h-1.3v-6h-0.3
		c-0.3,0.8-0.7,1.5-1.2,2c-0.2-0.3-0.4-0.7-0.7-1.1c0.6-1,1.2-2.1,1.5-3.4l1.1,0.3c-0.1,0.4-0.2,0.7-0.3,1.1h3.9v1.1h-2.8v1h2.3
		L-85.9,452.5L-85.9,452.5z"/>
	<path id="XMLID_175_" class="st0" d="M-81.2,452.6h3.5v-3.1h-3.1v-1.1h7.5v1.1h-3.1v3.1h3.5v1.1h-3.5v2.7h-1.3v-2.7h-3.5V452.6z
		 M-80.7,450.2l0.9-0.6c0.5,0.6,1.1,1.3,1.7,2.1l-1,0.7C-79.7,451.5-80.2,450.8-80.7,450.2z M-73.3,450.3c-0.6,0.7-1.2,1.4-1.9,2.1
		l-0.9-0.7c0.7-0.7,1.3-1.4,1.8-2.1L-73.3,450.3z"/>
	<path id="XMLID_182_" class="st0" d="M-62.5,449c0.9,0.9,1.7,1.7,2.4,2.5l-0.9,0.8l-0.7-0.8c-2.4,0-4.6,0.1-6.4,0.3l-0.5-1
		c1.1-0.7,2.2-1.7,3.3-3l1.1,0.6c-0.8,0.8-1.7,1.5-2.6,2.2l4.1-0.1l-0.9-1L-62.5,449z M-67.7,456.4v-4h6.6v4h-1.2v-0.5h-4.2v0.5
		H-67.7z M-62.3,453.4h-4.2v1.4h4.2V453.4z"/>
</g>
<g id="XMLID_181_">
	<g id="XMLID_237_">
		<path id="XMLID_197_" class="st0" d="M-28.9,408.2c-0.4-0.5-1-1.2-1.8-2.1c-0.9-0.9-1.5-1.6-1.9-2.1l2-1.3c0.5,0.4,1.1,1.1,2,2
			s1.5,1.6,1.9,2.1L-28.9,408.2z M-29.6,422l-2.6-0.7c0.9-3.1,1.7-6.6,2.5-10.5c0.4,0.2,1.2,0.4,2.5,0.7
			C-27.8,413.9-28.6,417.4-29.6,422z M-28.2,400.6c-1.2-1.5-2.4-3-3.6-4.5l2-1.3c1.4,1.5,2.7,2.9,3.7,4.3L-28.2,400.6z M-18,410.9
			c-0.2-0.2-0.4-0.4-0.8-0.8c-0.2-0.3-0.7-0.8-1.5-1.5v13.6h-2.5v-14.1c-0.9,2.7-2,5.3-3.4,7.7c-0.3-1.4-0.7-2.5-1.1-3.3
			c2.1-3.2,3.6-6.6,4.5-10.2H-26v-2.5h3.2v-5.6h2.5v5.6h3v2.5h-3v3.2c1.4,1,2.7,2.1,3.7,3.3L-18,410.9z M-16.1,422.2V396h10.8v26.2
			h-2.6v-1.8h-5.7v1.8H-16.1z M-13.7,398.3v5.2H-8v-5.2H-13.7z M-13.7,405.7v5.2H-8v-5.2H-13.7z M-13.7,413.1v5.3H-8v-5.3H-13.7z"/>
		<path id="XMLID_207_" class="st0" d="M1.5,407.9c-1.8-1.8-3.1-3.1-4-3.9l1.8-1.8c1.4,1.2,2.8,2.4,4.2,3.6L1.5,407.9z M0.6,421.9
			l-2.7-0.8c0.1-0.2,0.2-0.4,0.2-0.6c1.3-4.4,2.2-7.7,2.7-9.8c0.4,0.2,0.9,0.3,1.6,0.5c0.5,0.2,0.8,0.3,1.1,0.4
			C2.5,414.8,1.6,418.3,0.6,421.9z M2.4,400.3c-0.5-0.5-1.4-1.4-2.6-2.6c-0.5-0.5-1-1-1.3-1.3l1.8-1.8c1.3,1.1,2.7,2.3,4.1,3.7
			L2.4,400.3z M6.1,415.6v-8.4h17.4v8.4h-7.4v1.9h9.5v1.7h-9.5v3h-2.6v-3H3.4v-1.8h10.1v-1.9L6.1,415.6L6.1,415.6z M4.5,397.5v-1.9
			h21.1v1.9h-6.7v2.1h5.7v6H4.9v-6h5.7v-2.1H4.5z M7.2,401.4v2.5h3.5v-2.5H7.2z M8.7,408.9v1.8h12.2v-1.8H8.7z M8.7,412v1.9h12.2
			V412H8.7z M13.1,397.5v2.1h3.5v-2.1H13.1z M13.1,401.4v2.5h3.5v-2.5H13.1z M22.4,401.4h-3.5v2.5h3.5V401.4z"/>
		<path id="XMLID_219_" class="st0" d="M51.4,422c-1.9,0.1-3.5-0.8-4.8-2.6c-1.6-1.8-2.7-4.3-3.4-7.4H32.9v6.7l7.3-2.6
			c0,1.1,0,2,0.1,2.8c-1.3,0.4-3.1,1-5.4,1.8c-0.8,0.2-1.4,0.4-1.8,0.6c-0.9,0.4-1.6,0.7-2.3,1.1l-1.6-2.2c0.7-0.7,1-1.4,0.9-2.2
			v-22.6h23.4v9.5h-8.7c0.2,1.6,0.4,3.2,0.6,4.6h10.1v2.6H46c0.7,2.3,1.6,4.3,2.8,5.7c0.9,0.9,1.6,1.4,2.2,1.3
			c0.8,0,1.2-0.5,1.4-1.4c0.4-1.5,0.6-2.7,0.7-3.7c0.3,0.2,0.9,0.5,1.6,0.7c0.4,0.2,0.7,0.3,0.9,0.4c-0.3,1.7-0.7,3.1-1.1,4.2
			C54.1,421,53,421.9,51.4,422z M32.9,397.9v4.6h17.8v-4.6H32.9z M42.6,409.5c-0.2-1.4-0.4-2.9-0.6-4.6h-9.1v4.6H42.6z"/>
		<path id="XMLID_223_" class="st0" d="M57.7,398.9v-2.1h6.6v-2.6H67v2.6h9.4v-2.6H79v2.6h6.7v2.1H79v4.8h-6v2.2h9.7v7.4H73v2.5
			h12.8v2.2H73v4.2h-2.7V418H57.5v-2.2h12.8v-2.5h-9.6v-7.4h9.6v-2.2h-6v-4.8C64.3,398.9,57.7,398.9,57.7,398.9z M63.3,408.1v3.1
			h6.9V408h-6.9C63.3,408,63.3,408.1,63.3,408.1z M66.9,398.9v2.8h9.4v-2.8H66.9z M79.9,408.1h-7v3.1h7V408.1z"/>
	</g>
	<g id="XMLID_21_">
		<path id="XMLID_28_" class="st0" d="M-30.6,436.5c-0.2-0.2-0.4-0.4-0.8-0.8c-0.3-0.4-0.6-0.7-0.8-0.8c1.7-1.5,2.9-3.3,3.6-5.4
			l2.5,0.2c-0.3,0.9-0.7,1.6-1.1,2.3h8.7v2h-4.2c0,0.4,0,0.9-0.1,1.4c0,0.7,0,1.2-0.1,1.5h5.3v2h-5.9c2,1.2,3.9,2.4,5.7,3.6l-1.5,2
			c-0.3-0.2-0.8-0.6-1.4-1.1c-1.6-1.2-2.8-2.1-3.6-2.7c-0.9,1.6-3.1,3.3-6.4,4.9c-0.5-0.7-1-1.4-1.5-2.2c3.4-1.2,5.4-2.7,6.2-4.6h-6
			v-2h6.6c0.2-0.9,0.2-1.9,0.2-2.9h-3C-29,434.8-29.8,435.6-30.6,436.5z M-28.5,457.7v-12.9H-8v12.9h-2.7v-1.3h-15.1v1.3H-28.5z
			 M-25.8,447v2.7h15.1V447H-25.8z M-25.8,451.7v2.6h15.1v-2.6H-25.8z M-16.5,442.7v-11h10.8v11H-16.5z M-14,433.9v6.6h5.9v-6.6H-14
			z"/>
		<path id="XMLID_35_" class="st0" d="M-0.2,457c-0.7-0.5-1.4-1-2.2-1.3c0.9-0.9,1.9-2.4,3-4.3l2.3,0.9C2,453.9,0.9,455.5-0.2,457z
			 M-1.4,433.3v-1.6H4v-1.9h2.5v1.9H11v1.6H6.5v1.8h4.1v1.4H6.5v1.9h4.6v1.6H6.5v1.5H4V440h-6v-1.6h6v-1.9h-4.8v-1.4H4v-1.8H-1.4z
			 M0.9,446.9v-1.5h19v-1.8H0V442h22.5v8.4H12c0.2,0.2,0.4,0.4,0.6,0.7c0.9,1,1.5,1.7,1.9,2.1l-2.2,1.1c-0.9-1.2-1.8-2.3-2.6-3.3
			l1.2-0.6h-11v-1.8h20v-1.8L0.9,446.9C0.9,446.8,0.9,446.9,0.9,446.9z M7.8,457.3c-2.2,0.1-3.2-0.9-3.2-3v-2.6h2.7v2.1
			c-0.1,1,0.5,1.5,1.8,1.4h5.3c1.4,0.1,2.2-0.3,2.5-1.2c0-0.2,0-0.4,0.1-0.6c0.1-0.5,0.2-0.9,0.2-1.2c0.9,0.3,1.7,0.6,2.5,0.8
			c-0.1,0.5-0.2,1-0.5,1.5c-0.1,0.2-0.1,0.4-0.1,0.5c-0.4,1.6-1.7,2.3-4,2.2L7.8,457.3L7.8,457.3z M12.2,433.3v-1.6h4.3v-1.9H19v1.9
			h5.6v1.6H19v1.8h4.9v1.4H19v1.9h5.9v1.6H19v1.5h-2.5V440H12v-1.6h4.5v-1.9h-4v-1.4h4v-1.8H12.2z M23.5,456.6
			c-0.9-1.4-1.9-2.9-3.2-4.6l2.2-1.1c1.6,2.2,2.6,3.7,3.2,4.5L23.5,456.6z"/>
		<path id="XMLID_60_" class="st0" d="M29.7,457.8c-0.4-0.8-0.9-1.6-1.6-2.6c6.2-1,9.2-3.1,8.8-6.3h-4.6V440h18.6v8.9h-4.8v3.9
			c-0.1,1.3,0.5,1.8,1.9,1.8h2.2c1.5,0.1,2.3-0.4,2.3-1.3c0.2-0.9,0.4-2.1,0.6-3.4c1.1,0.3,2,0.6,2.7,0.8c-0.2,1.6-0.4,2.9-0.7,3.6
			c-0.4,1.9-1.8,2.8-4.2,2.7h-4c-2.4,0.1-3.6-1.1-3.6-3.6v-4.5h-3.6C40,453.2,36.7,456.2,29.7,457.8z M28.4,441.1v-6.2h11.7v-5.2H43
			v5.2h11.7v6.2H52v-3.7H31v3.7H28.4z M34.5,434.7c-1.2-1.2-2.4-2.5-3.6-3.6l2.6-0.8c0.7,0.6,2,1.9,3.9,3.7L34.5,434.7z M35.1,442.3
			v4.2h13v-4.2H35.1z M48.4,434.9l-2.7-0.8c0.5-0.4,1.4-1.2,2.7-2.5c0.6-0.6,1.1-1.1,1.4-1.3l2.6,0.9c-0.5,0.5-1.3,1.2-2.5,2.2
			C49.3,434.1,48.7,434.5,48.4,434.9z"/>
		<path id="XMLID_66_" class="st0" d="M58.4,444.8c-0.1-0.2-0.2-0.5-0.5-1.1c-0.3-0.5-0.5-1-0.7-1.3c5.3-0.7,9.2-1.5,11.7-2.5
			c-2-1.3-3.7-2.7-4.9-4.2c-1.3,1.3-2.7,2.5-4.3,3.6c-0.5-0.7-1.1-1.4-1.9-2c3.4-2.3,6.2-4.9,8.4-7.8l3,0.5c-0.6,0.7-1.2,1.4-1.6,2
			h14.6v2.5c-2.3,2.3-4.7,4.1-7.3,5.5c2.8,0.9,6.4,1.6,10.8,1.9c-0.5,1-0.8,1.9-1.1,2.6c-5.8-0.7-10.1-1.7-12.9-2.9
			C68.5,442.9,64,444,58.4,444.8z M71.7,457.2c0-0.2-0.1-0.7-0.2-1.3c-0.1-0.6-0.2-1.1-0.2-1.4c1.5,0,3.1,0,4.9,0
			c2,0.2,3.1-0.6,3.2-2.6c0-0.2,0-0.8,0-1.6c0.1-0.9,0.1-1.4,0.1-1.8h-9.3c-0.6,4.2-4.3,7.3-11,9.4c-0.4-0.7-0.9-1.6-1.6-2.6
			c5.9-1.4,9.2-3.7,9.7-6.8h-7.8v-2.3h8.3c0.2-0.9,0.3-1.8,0.4-2.8H71c-0.1,1-0.2,2-0.4,2.8h11.9c-0.1,0.8-0.2,2-0.2,3.5
			c-0.2,1.1-0.2,1.9-0.2,2.3c0.1,3.5-1.8,5.2-5.5,5C75.5,457.2,73.9,457.2,71.7,457.2z M78.8,434.4H66c1.7,1.9,3.7,3.4,6,4.5
			C74.3,437.7,76.6,436.3,78.8,434.4z"/>
		<path id="XMLID_70_" class="st0" d="M89.3,434.9v-2.7h24.5v2.7h-10.7v18.3h12.3v2.6H87.8v-2.6H100v-18.3H89.3z"/>
		<path id="XMLID_163_" class="st0" d="M118.3,446.6c-0.2-0.6-0.4-1.5-0.7-2.7c-0.1-0.2-0.2-0.3-0.2-0.5c2.7-4.2,4.8-8.8,6.2-13.8
			l2.8,0.7c-0.7,2.2-1.5,4.3-2.5,6.3v21h-2.7v-15.7C120.2,443.5,119.3,445.1,118.3,446.6z M127.3,443.3c-0.2-0.3-0.7-0.7-1.3-1.3
			c-0.3-0.3-0.5-0.5-0.7-0.7c2.5-3.2,4.5-7.1,5.9-11.7l2.8,0.6c-0.5,1.4-1,2.7-1.5,4h13.4v2.5h-10v4.8h8.3v2.5h-8.3v4.8h9.1v2.6
			h-9.1v6.3h-2.7v-21h-1.9C130.2,438.9,128.8,441.1,127.3,443.3z"/>
		<path id="XMLID_178_" class="st0" d="M148.9,433.7v-2.6h25.3v2.6H163v11.6h12.5v2.7H163v9.7h-2.9V448h-12.6v-2.7H160v-11.6H148.9z
			 M155,443.6c-1.6-2.3-3.3-4.4-5-6.4l2.1-1.6c1.8,2.1,3.6,4.2,5.3,6.3L155,443.6z M167.6,443.8l-2.1-1.8c2-2.1,3.7-4.3,5.4-6.4
			l2.2,1.6C171.3,439.5,169.4,441.6,167.6,443.8z"/>
		<path id="XMLID_192_" class="st0" d="M203.4,443.3l-2.1-2.2c-5.3,0.1-11.4,0.3-18.3,0.6c-1.6,0.1-2.8,0.2-3.6,0.5l-1.4-2.7
			c1.2-0.5,2.2-1.2,2.9-1.9c3.4-2.8,6.2-5.5,8.2-8.1l3,1.4c-3.3,3.1-6.3,5.9-9,8.2c0.7,0,1.8,0,3.3-0.1c5.4-0.1,9.6-0.2,12.5-0.4
			l-3.7-3.9l2.1-1.4c4,3.8,6.8,6.6,8.4,8.3L203.4,443.3z M180.9,457.7v-12.9h21.2v12.9h-2.8v-1.9h-15.7v1.9H180.9z M183.6,447.3v6.3
			h15.7v-6.3H183.6z"/>
	</g>
</g>
</svg>
