<?xml version="1.0" encoding="utf-8"?>
<!-- Generator: Adobe Illustrator 19.0.0, SVG Export Plug-In . SVG Version: 6.00 Build 0)  -->
<svg version="1.1" id="图层_1" xmlns="http://www.w3.org/2000/svg" xmlns:xlink="http://www.w3.org/1999/xlink" x="0px" y="0px"
	 viewBox="-305 297 400 200" style="enable-background:new -305 297 400 200;" xml:space="preserve">
<style type="text/css">
	.st0{fill:#BABABA;}
	.st1{fill:#3654EA;}
	.st2{fill:#FFFFFF;}
</style>
<path class="st0" d="M-205.1,297c-55.2,0-100,44.8-100,100c0,55.2,44.8,100,100,100s100-44.8,100-100
	C-105.1,341.8-149.8,297-205.1,297z M-205.1,489c-50.8,0-92-41.2-92-92s41.2-92,92-92s92,41.2,92,92S-154.2,489-205.1,489z"/>
<circle class="st1" cx="-5" cy="397" r="100"/>
<g>
	<path class="st0" d="M-205.1,419.4c-20,0-36.3-16.3-36.3-36.3c0-20,16.3-36.3,36.3-36.3c20,0,36.3,16.3,36.3,36.3
		C-168.8,403.2-185,419.4-205.1,419.4z M-205.1,356.9c-14.5,0-26.3,11.8-26.3,26.3c0,14.5,11.8,26.3,26.3,26.3
		c14.5,0,26.3-11.8,26.3-26.3C-178.8,368.7-190.6,356.9-205.1,356.9z"/>
</g>
<g>
	<path class="st0" d="M-274.4,467.8c-0.6,0-1.2-0.1-1.7-0.3c-2.6-1-3.9-3.8-2.9-6.4c11.5-30.8,41.2-51.4,74.1-51.4
		c32.5,0,62.1,20.4,73.8,50.7c1,2.6-0.3,5.5-2.9,6.5c-2.6,1-5.5-0.3-6.5-2.9c-10.2-26.5-36.1-44.3-64.4-44.3
		c-28.7,0-54.7,18.1-64.7,44.9C-270.5,466.6-272.4,467.8-274.4,467.8z"/>
</g>
<g>
	<path class="st2" d="M-5.1,419.4c-20,0-36.3-16.3-36.3-36.3c0-20,16.3-36.3,36.3-36.3c20,0,36.3,16.3,36.3,36.3
		C31.2,403.2,15,419.4-5.1,419.4z M-5.1,356.9c-14.5,0-26.3,11.8-26.3,26.3c0,14.5,11.8,26.3,26.3,26.3c14.5,0,26.3-11.8,26.3-26.3
		C21.2,368.7,9.4,356.9-5.1,356.9z"/>
</g>
<g>
	<path class="st2" d="M-74.4,467.8c-0.6,0-1.2-0.1-1.7-0.3c-2.6-1-3.9-3.8-2.9-6.4c11.5-30.8,41.2-51.4,74.1-51.4
		c32.5,0,62.1,20.4,73.8,50.7c1,2.6-0.3,5.5-2.9,6.5c-2.6,1-5.5-0.3-6.5-2.9c-10.2-26.5-36.1-44.3-64.4-44.3
		c-28.7,0-54.7,18.1-64.7,44.9C-70.5,466.6-72.4,467.8-74.4,467.8z"/>
</g>
</svg>
