<?xml version="1.0" encoding="utf-8"?>
<!-- Generator: Adobe Illustrator 19.0.0, SVG Export Plug-In . SVG Version: 6.00 Build 0)  -->
<svg version="1.1" id="图层_1" xmlns="http://www.w3.org/2000/svg" xmlns:xlink="http://www.w3.org/1999/xlink" x="0px" y="0px"
	 viewBox="-305 297 400 200" style="enable-background:new -305 297 400 200;" xml:space="preserve">
<style type="text/css">
	.st0{fill:#BABABA;}
	.st1{fill:#3654EA;}
	.st2{fill:#FFFFFF;}
</style>
<path class="st0" d="M-205.1,297c-55.2,0-100,44.8-100,100c0,55.2,44.8,100,100,100s100-44.8,100-100
	C-105.1,341.8-149.8,297-205.1,297z M-205.1,489c-50.8,0-92-41.2-92-92s41.2-92,92-92s92,41.2,92,92S-154.2,489-205.1,489z"/>
<circle class="st1" cx="-5" cy="397" r="100"/>
<path class="st0" d="M-176.9,368.9h-5.4v-4c0-6.3-5.2-11.4-11.5-11.4h-22.5c-6.3,0-11.5,5.2-11.5,11.5v3.9h-5.4
	c-8.9,0-16.1,7.2-16.1,16.1v45.5c0,8.9,7.2,16.1,16.1,16.1h56.3c8.9,0,16.1-7.2,16.1-16.1v-45.5
	C-160.9,376.1-168.1,368.9-176.9,368.9z M-221,365c0-2.6,2.1-4.7,4.7-4.7h22.5c2.7,0,4.7,2,4.7,4.7v4H-221V365z M-167.6,430.5
	c0,5.1-4.2,9.3-9.3,9.3h-56.3c-5.1,0-9.3-4.2-9.3-9.3v-45.5c0-5.1,4.2-9.3,9.3-9.3h56.3c5.1,0,9.3,4.2,9.3,9.3V430.5z"/>
<path class="st0" d="M-190.5,400.1h-7v-7c0-2-1.7-3.7-3.7-3.7h-7.7c-2,0-3.7,1.7-3.7,3.7v7h-7c-2,0-3.7,1.7-3.7,3.7v7.7
	c0,2,1.7,3.7,3.7,3.7h7v7c0,2,1.7,3.7,3.7,3.7h7.7c2,0,3.7-1.7,3.7-3.7v-7h7c2,0,3.7-1.7,3.7-3.7v-7.7
	C-186.8,401.8-188.5,400.1-190.5,400.1z"/>
<path class="st2" d="M23,368.9h-5.4v-4c0-6.3-5.2-11.4-11.5-11.4h-22.5c-6.3,0-11.5,5.2-11.5,11.5v3.9h-5.4
	c-8.9,0-16.1,7.2-16.1,16.1v45.5c0,8.9,7.2,16.1,16.1,16.1H23c8.9,0,16.1-7.2,16.1-16.1v-45.5C39.1,376.1,31.9,368.9,23,368.9z
	 M-21.1,365c0-2.6,2.1-4.7,4.7-4.7H6.1c2.7,0,4.7,2,4.7,4.7v4h-31.9V365z M32.3,430.5c0,5.1-4.2,9.3-9.3,9.3h-56.3
	c-5.1,0-9.3-4.2-9.3-9.3v-45.5c0-5.1,4.2-9.3,9.3-9.3H23c5.1,0,9.3,4.2,9.3,9.3V430.5z"/>
<path class="st2" d="M9.4,400.1h-7v-7c0-2-1.7-3.7-3.7-3.7H-9c-2,0-3.7,1.7-3.7,3.7v7h-7c-2,0-3.7,1.7-3.7,3.7v7.7
	c0,2,1.7,3.7,3.7,3.7h7v7c0,2,1.7,3.7,3.7,3.7h7.7c2,0,3.7-1.7,3.7-3.7v-7h7c2,0,3.7-1.7,3.7-3.7v-7.7
	C13.1,401.8,11.5,400.1,9.4,400.1z"/>
</svg>
