<?xml version="1.0" encoding="utf-8"?>
<!-- Generator: Adobe Illustrator 19.0.0, SVG Export Plug-In . SVG Version: 6.00 Build 0)  -->
<svg version="1.1" id="图层_1" xmlns="http://www.w3.org/2000/svg" xmlns:xlink="http://www.w3.org/1999/xlink" x="0px" y="0px"
	 viewBox="-105 297 400 200" style="enable-background:new -105 297 400 200;" xml:space="preserve">
<style type="text/css">
	.st0{fill:#BABABA;}
	.st1{fill:#3654EA;}
	.st2{fill:#FFFFFF;}
</style>
<path class="st0" d="M-5.1,297c-55.2,0-100,44.8-100,100s44.8,100,100,100s100-44.8,100-100C94.9,341.8,50.2,297-5.1,297z M-5.1,489
	c-50.8,0-92-41.2-92-92s41.2-92,92-92s92,41.2,92,92S45.8,489-5.1,489z"/>
<circle class="st1" cx="195" cy="397" r="100"/>
<g>
	<path class="st0" d="M44.5,388.1c2.4-1.3,3.7-3.4,3.7-5.8s-1.3-4.5-3.7-5.8L0.7,351.9c-3.2-1.8-8.3-1.8-11.5,0l-43.8,24.6
		c-2.4,1.3-3.7,3.4-3.7,5.8s1.4,4.5,3.7,5.8l12.2,6.9c0,0.1,0,0.2,0,0.3v32.6c0,0.2,0,0.5,0.1,0.7c0.8,11.1,19.2,16.8,37.3,16.8
		c18.3,0,36.9-5.9,37.3-17.2c0-0.1,0-0.2,0-0.3v-32.6c0-0.1,0-0.2,0-0.3L44.5,388.1L44.5,388.1z M-6.5,359.4
		c0.2-0.1,0.7-0.3,1.5-0.3c0.7,0,1.3,0.2,1.5,0.3l40.8,22.9l-40.8,22.9c-0.2,0.1-0.7,0.3-1.5,0.3c-0.7,0-1.3-0.2-1.5-0.3l-40.8-22.9
		L-6.5,359.4z M23.8,427.7c0,0.1,0,0.1,0,0.2c0,3.2-11,9-28.7,9s-28.7-5.8-28.7-9c0-0.2,0-0.3,0-0.5v-27.6l23,12.9
		c1.6,0.9,3.6,1.4,5.7,1.4c2.1,0,4.1-0.5,5.7-1.4l23-12.9V427.7L23.8,427.7z"/>
	<path class="st0" d="M43.3,391.6c-2.4,0-4.3,1.9-4.3,4.3V430c0,2.4,1.9,4.3,4.3,4.3c2.4,0,4.3-1.9,4.3-4.3v-34.1
		C47.6,393.5,45.7,391.6,43.3,391.6z"/>
</g>
<g>
	<path class="st2" d="M244.3,388.1c2.4-1.3,3.7-3.4,3.7-5.8s-1.3-4.5-3.7-5.8l-43.8-24.6c-3.2-1.8-8.3-1.8-11.5,0l-43.8,24.6
		c-2.4,1.3-3.7,3.4-3.7,5.8s1.4,4.5,3.7,5.8l12.2,6.9c0,0.1,0,0.2,0,0.3v32.6c0,0.2,0,0.5,0.1,0.7c0.8,11.1,19.2,16.8,37.3,16.8
		c18.3,0,36.9-5.9,37.3-17.2c0-0.1,0-0.2,0-0.3v-32.6c0-0.1,0-0.2,0-0.3L244.3,388.1L244.3,388.1z M193.2,359.4
		c0.2-0.1,0.7-0.3,1.5-0.3c0.7,0,1.3,0.2,1.5,0.3l40.8,22.9l-40.8,22.9c-0.2,0.1-0.7,0.3-1.5,0.3c-0.7,0-1.3-0.2-1.5-0.3l-40.8-22.9
		C152.5,382.3,193.2,359.4,193.2,359.4z M223.5,427.7c0,0.1,0,0.1,0,0.2c0,3.2-11,9-28.7,9s-28.7-5.8-28.7-9c0-0.2,0-0.3,0-0.5
		v-27.6l23,12.9c1.6,0.9,3.6,1.4,5.7,1.4c2.1,0,4.1-0.5,5.7-1.4l23-12.9V427.7L223.5,427.7z"/>
	<path class="st2" d="M243.1,391.6c-2.4,0-4.3,1.9-4.3,4.3V430c0,2.4,1.9,4.3,4.3,4.3c2.4,0,4.3-1.9,4.3-4.3v-34.1
		C247.4,393.5,245.5,391.6,243.1,391.6z"/>
</g>
</svg>
