<?xml version="1.0" encoding="utf-8"?>
<!-- Generator: Adobe Illustrator 19.0.0, SVG Export Plug-In . SVG Version: 6.00 Build 0)  -->
<svg version="1.1" id="图层_1" xmlns="http://www.w3.org/2000/svg" xmlns:xlink="http://www.w3.org/1999/xlink" x="0px" y="0px"
	 viewBox="-305 297 400 200" style="enable-background:new -305 297 400 200;" xml:space="preserve">
<style type="text/css">
	.st0{fill:#BABABA;}
	.st1{fill:#3654EA;}
	.st2{fill:#FFFFFF;}
</style>
<path class="st0" d="M-205.1,297c-55.2,0-100,44.8-100,100c0,55.2,44.8,100,100,100s100-44.8,100-100
	C-105.1,341.8-149.8,297-205.1,297z M-205.1,489c-50.8,0-92-41.2-92-92s41.2-92,92-92s92,41.2,92,92S-154.2,489-205.1,489z"/>
<circle class="st1" cx="-5" cy="397" r="100"/>
<path class="st0" d="M-163.2,362.4c-1.1,0-3.2-0.4-6.5-1.1c-1.8-0.4-9.3-2.3-10.6-2.6c-3.8-0.9-7-1.6-10.1-2.2
	c-5.6-1.1-10.5-1.6-14.6-1.6c-4.2,0-9,0.6-14.7,1.7c-3.1,0.6-6.2,1.3-10,2.2c-1.3,0.3-8.8,2.2-10.6,2.6c-3.3,0.8-5.4,1.1-6.5,1.1
	h-2.3v53.8c1.8,15,14.3,29,43.7,36.2l0.6,0.1l0.6-0.1c29.4-7.2,41.9-21.2,43.6-35.9l0-51.8v-2.3L-163.2,362.4L-163.2,362.4z
	 M-205,442.1c-23.7-5.9-33.2-16.7-34.5-27.7l0-42.9c1.2-0.2,2.6-0.5,4.4-0.9c1.7-0.4,8.3-2,9.4-2.3c3.3-0.8,6-1.4,8.6-1.9
	c4.7-0.9,8.7-1.4,12.1-1.4c3.4,0,7.3,0.5,12,1.4c2.6,0.5,5.4,1.1,8.6,1.9c1.2,0.3,7.7,1.9,9.4,2.3c1.8,0.4,3.2,0.7,4.4,0.9v43
	C-171.9,425.6-181.5,436.2-205,442.1L-205,442.1z"/>
<path class="st0" d="M-188.2,408.7h10.5v-8h-15.5v-4.1h12.3v-21.6h-33.4v21.6h12.1v4.1H-218v8h10c-2.9,3.5-6.6,6.5-11.1,9.1v-30.9
	c1.4-3.6,2.5-7.4,3.4-11.4l-8.9-2.3c-2,9.1-4.8,17.1-8.4,23.9c0.5,2.4,0.8,5.8,1.1,10c0.1,1.2,0.2,2.1,0.2,2.7c0.5-0.8,1.1-1.7,2-3
	c0.9-1.4,1.6-2.4,2-3v23.4h8.4V419c1.4,2.1,2.9,4.2,4.6,6.1c5.3-3.5,9.4-7.4,12.3-11.6v13.9h9.1v-14.1c2.3,3.9,6.1,7.7,11.6,11.4
	c0.5-0.6,1.1-1.7,1.8-3.2c1.2-2.1,2.1-3.6,2.7-4.6C-181.9,414.7-185.6,411.9-188.2,408.7L-188.2,408.7z M-205.7,388.7V383h16.2v5.7
	H-205.7z"/>
<path class="st2" d="M35.8,362.4c-1.1,0-3.2-0.4-6.5-1.1c-1.8-0.4-9.3-2.3-10.6-2.6c-3.8-0.9-7-1.6-10.1-2.2
	C3,355.3-1.8,354.8-6,354.8c-4.2,0-9,0.6-14.7,1.7c-3.1,0.6-6.2,1.3-10,2.2c-1.3,0.3-8.8,2.2-10.6,2.6c-3.3,0.8-5.4,1.1-6.5,1.1
	h-2.3v53.8c1.8,15,14.3,29,43.7,36.2l0.6,0.1l0.6-0.1c29.4-7.2,41.9-21.2,43.6-35.9l0-51.8v-2.3L35.8,362.4L35.8,362.4z M-6,442.1
	c-23.7-5.9-33.2-16.7-34.5-27.7l0-42.9c1.2-0.2,2.6-0.5,4.4-0.9c1.7-0.4,8.3-2,9.4-2.3c3.3-0.8,6-1.4,8.6-1.9
	c4.7-0.9,8.7-1.4,12.1-1.4c3.4,0,7.3,0.5,12,1.4c2.6,0.5,5.4,1.1,8.6,1.9c1.2,0.3,7.7,1.9,9.4,2.3c1.8,0.4,3.2,0.7,4.4,0.9v43
	C27.1,425.6,17.5,436.2-6,442.1L-6,442.1z"/>
<path class="st2" d="M10.8,408.7h10.5v-8H5.8v-4.1h12.3v-21.6h-33.4v21.6h12.1v4.1H-19v8h10c-2.9,3.5-6.6,6.5-11.1,9.1v-30.9
	c1.4-3.6,2.5-7.4,3.4-11.4l-8.9-2.3c-2,9.1-4.8,17.1-8.4,23.9c0.5,2.4,0.8,5.8,1.1,10c0.1,1.2,0.2,2.1,0.2,2.7c0.5-0.8,1.1-1.7,2-3
	c0.9-1.4,1.6-2.4,2-3v23.4h8.4V419c1.4,2.1,2.9,4.2,4.6,6.1c5.3-3.5,9.4-7.4,12.3-11.6v13.9h9.1v-14.1c2.3,3.9,6.1,7.7,11.6,11.4
	c0.5-0.6,1.1-1.7,1.8-3.2c1.2-2.1,2.1-3.6,2.7-4.6C17.1,414.7,13.4,411.9,10.8,408.7L10.8,408.7z M-6.7,388.7V383H9.4v5.7H-6.7z"/>
</svg>
