<?xml version="1.0" encoding="utf-8"?>
<!-- Generator: Adobe Illustrator 19.0.0, SVG Export Plug-In . SVG Version: 6.00 Build 0)  -->
<svg version="1.1" id="图层_1" xmlns="http://www.w3.org/2000/svg" xmlns:xlink="http://www.w3.org/1999/xlink" x="0px" y="0px"
	 viewBox="-305 297 400 200" style="enable-background:new -305 297 400 200;" xml:space="preserve">
<style type="text/css">
	.st0{fill:#BABABA;}
	.st1{fill:#3654EA;}
	.st2{fill:#FFFFFF;}
</style>
<path class="st0" d="M-205.1,297c-55.2,0-100,44.8-100,100c0,55.2,44.8,100,100,100s100-44.8,100-100
	C-105.1,341.8-149.8,297-205.1,297z M-205.1,489c-50.8,0-92-41.2-92-92s41.2-92,92-92s92,41.2,92,92S-154.2,489-205.1,489z"/>
<circle class="st1" cx="-5" cy="397" r="100"/>
<g>
	<path class="st0" d="M-215.3,369.1c7.7,0,14.1-6.3,14.1-14.1c0-7.7-6.3-14.1-14.1-14.1c-7.7,0-14.1,6.3-14.1,14.1v0
		C-229.4,362.8-223.1,369.1-215.3,369.1z M-221,355.1c0-3.1,2.5-5.7,5.7-5.7c3.1,0,5.7,2.5,5.7,5.7c0,3.1-2.5,5.7-5.7,5.7
		C-218.5,360.7-221,358.2-221,355.1z"/>
	<path class="st0" d="M-185.8,429.7l-0.1-0.1c-1.8-1-4.1-0.6-5.4,1h-0.1l-0.3,0.5c0,0,0,0,0,0l0,0.1c-4.7,8.2-13.5,13.3-22.9,13.3
		c-14.5,0-26.4-11.9-26.4-26.4c0-11,6.7-20.6,16.9-24.6c2.2-0.8,3.2-3.3,2.4-5.4c-0.8-2.2-3.3-3.2-5.4-2.4c-6.5,2.5-12,6.9-16,12.6
		c-4.1,5.9-6.3,12.8-6.3,19.9c0,19.2,15.6,34.8,34.8,34.8c12.5,0,24.1-6.8,30.3-17.6c0.6-1,0.7-2.1,0.4-3.2
		C-184.2,431.2-184.9,430.3-185.8,429.7z"/>
	<path class="st0" d="M-159.4,444.6h-6.6l-9.5-34.2c-0.5-1.8-2.2-3.1-4-3.1l-27.8-0.1l-3.2-26.9c0.7,0,1.3,0.1,1.6,0.2
		c0.6,0.2,1.5,0.9,3.4,2.6l0.5,0.4l21.6,20c0,0,0,0,0.1,0.1l0,0c0.4,0.3,0.8,0.6,1.3,0.7l0.2,0.1h0c0.3,0.1,0.6,0.2,1,0.2
		c0.1,0,0.2,0,0.3,0h6.1c2.3,0,4.2-1.9,4.2-4.2c0-2.3-1.9-4.2-4.2-4.2h-4.4l-20.5-18.9l-0.6-0.6c-5.4-4.7-6.6-4.9-14.4-4.9l-0.7,0
		c-0.3,0-0.5,0-0.8,0c-1.1,0.2-2.1,0.7-2.8,1.6c-0.7,0.9-1,2-0.8,3.1l4.2,35.2c0.2,2.2,2.1,3.8,4.2,3.8l28.2,0.1l9.5,34.1
		c0.5,1.9,2.1,3.2,4.1,3.2c0,0,0,0,0,0h9.8c2.3,0,4.2-1.9,4.2-4.2C-155.2,446.5-157.1,444.6-159.4,444.6z"/>
</g>
<g>
	<path class="st2" d="M-14.8,369.1c7.7,0,14.1-6.3,14.1-14.1c0-7.7-6.3-14.1-14.1-14.1c-7.7,0-14.1,6.3-14.1,14.1v0
		C-28.8,362.8-22.5,369.1-14.8,369.1z M-20.4,355.1c0-3.1,2.5-5.7,5.7-5.7s5.7,2.5,5.7,5.7c0,3.1-2.5,5.7-5.7,5.7
		S-20.4,358.2-20.4,355.1z"/>
	<path class="st2" d="M14.8,429.7l-0.1-0.1c-1.8-1-4.1-0.6-5.4,1H9.2l-0.3,0.5c0,0,0,0,0,0l0,0.1c-4.7,8.2-13.5,13.3-22.9,13.3
		c-14.5,0-26.4-11.9-26.4-26.4c0-11,6.7-20.6,16.9-24.6c2.2-0.8,3.2-3.3,2.4-5.4c-0.8-2.2-3.3-3.2-5.4-2.4c-6.5,2.5-12,6.9-16,12.6
		c-4.1,5.9-6.3,12.8-6.3,19.9c0,19.2,15.6,34.8,34.8,34.8c12.5,0,24.1-6.8,30.3-17.6c0.6-1,0.7-2.1,0.4-3.2
		C16.3,431.2,15.7,430.3,14.8,429.7z"/>
	<path class="st2" d="M41.1,444.6h-6.6L25,410.4c-0.5-1.8-2.2-3.1-4-3.1l-27.8-0.1l-3.2-26.9c0.7,0,1.3,0.1,1.6,0.2
		c0.6,0.2,1.5,0.9,3.4,2.6l0.5,0.4l21.6,20c0,0,0,0,0.1,0.1l0,0c0.4,0.3,0.8,0.6,1.3,0.7l0.2,0.1h0c0.3,0.1,0.6,0.2,1,0.2
		c0.1,0,0.2,0,0.3,0H26c2.3,0,4.2-1.9,4.2-4.2c0-2.3-1.9-4.2-4.2-4.2h-4.4L1.1,377.4l-0.6-0.6c-5.4-4.7-6.6-4.9-14.4-4.9l-0.7,0
		c-0.3,0-0.5,0-0.8,0c-1.1,0.2-2.1,0.7-2.8,1.6c-0.7,0.9-1,2-0.8,3.1l4.2,35.2c0.2,2.2,2.1,3.8,4.2,3.8l28.2,0.1l9.5,34.1
		c0.5,1.9,2.1,3.2,4.1,3.2c0,0,0,0,0,0h9.8c2.3,0,4.2-1.9,4.2-4.2C45.3,446.5,43.5,444.6,41.1,444.6z"/>
</g>
</svg>
