<?xml version="1.0" encoding="utf-8"?>
<!-- Generator: Adobe Illustrator 19.0.0, SVG Export Plug-In . SVG Version: 6.00 Build 0)  -->
<svg version="1.1" id="图层_1" xmlns="http://www.w3.org/2000/svg" xmlns:xlink="http://www.w3.org/1999/xlink" x="0px" y="0px"
	 viewBox="-247 370.9 100 100" style="enable-background:new -247 370.9 100 100;" xml:space="preserve">
<style type="text/css">
	.st0{fill:#FFFFFF;}
</style>
<g>
	<path class="st0" d="M-177.6,392.7c-13.1-13.1-34.4-13.1-47.6,0c-13.1,13.1-13.1,34.4,0,47.6c13.2,13.1,34.5,13.1,47.6,0l0,0
		C-164.5,427.2-164.5,405.9-177.6,392.7L-177.6,392.7L-177.6,392.7z M-232.5,447.6c-17.1-17.2-17.1-45,0-62.2
		c17.2-17.2,45-17.2,62.2,0s17.2,45,0,62.2C-187.4,464.8-215.3,464.8-232.5,447.6L-232.5,447.6L-232.5,447.6z M-150.3,467.6
		c-2.3,2.3-6.2,2.3-8.5,0l-8.5-8.5c-2.3-2.3-2.3-6.1,0-8.5c2.3-2.3,6.1-2.3,8.5,0l8.5,8.5C-148,461.4-148,465.2-150.3,467.6
		L-150.3,467.6z"/>
</g>
</svg>
