<?xml version="1.0" encoding="utf-8"?>
<!-- Generator: Adobe Illustrator 19.0.0, SVG Export Plug-In . SVG Version: 6.00 Build 0)  -->
<svg version="1.1" id="图层_1" xmlns="http://www.w3.org/2000/svg" xmlns:xlink="http://www.w3.org/1999/xlink" x="0px" y="0px"
	 viewBox="-305 297 400 200" style="enable-background:new -305 297 400 200;" xml:space="preserve">
<style type="text/css">
	.st0{fill:#BABABA;}
	.st1{fill:#3654EA;}
	.st2{fill:#FFFFFF;}
</style>
<g>
	<path class="st0" d="M-205.1,297c-55.2,0-100,44.8-100,100c0,55.2,44.8,100,100,100s100-44.8,100-100
		C-105.1,341.8-149.8,297-205.1,297z M-205.1,489c-50.8,0-92-41.2-92-92s41.2-92,92-92s92,41.2,92,92S-154.2,489-205.1,489z"/>
	<g>
		<g>
			<path class="st0" d="M-166.8,343.1h-76.5c-5.6,0-10.1,4.5-10.1,10.1v87.6c0,5.6,4.5,10.1,10.1,10.1l0,0h76.5
				c5.6,0,10.1-4.5,10.1-10.1c0,0,0,0,0,0v-87.6C-156.7,347.6-161.2,343.1-166.8,343.1C-166.8,343.1-166.8,343.1-166.8,343.1z
				 M-165.3,440.5c0,0.9-0.7,1.5-1.5,1.5h-76.5c-0.9,0-1.5-0.7-1.5-1.5v-87.3c0-0.9,0.7-1.5,1.5-1.5l0,0h76.5c0.9,0,1.5,0.7,1.5,1.5
				v87.6V440.5z"/>
			<path class="st0" d="M-227.6,368.9h-2.7c-1.6,0-2.9,1.3-2.9,2.9c0,1.6,1.3,2.9,2.9,2.9l0,0h2.7c1.6,0,2.9-1.3,2.9-2.9
				C-224.8,370.1-226.1,368.9-227.6,368.9z M-179.8,368.9h-32.4c-1.6,0-2.9,1.3-2.9,2.9c0,1.6,1.3,2.9,2.9,2.9l0,0h32.4
				c1.6,0,2.9-1.3,2.9-2.9C-176.9,370.1-178.2,368.9-179.8,368.9z M-227.6,394.1h-2.7c-1.6,0-2.9,1.3-2.9,2.9c0,1.6,1.3,2.9,2.9,2.9
				h2.7c1.6,0,2.9-1.3,2.9-2.9S-226.1,394.1-227.6,394.1z M-179.8,394.1h-32.4c-1.6,0-2.9,1.3-2.9,2.9c0,1.6,1.3,2.9,2.9,2.9h32.4
				c1.6,0,2.9-1.3,2.9-2.9S-178.2,394.1-179.8,394.1z M-179.8,419.4h-32.4c-1.6,0-2.9,1.3-2.9,2.9c0,1.6,1.3,2.9,2.9,2.9l0,0h32.4
				c1.6,0,2.9-1.3,2.9-2.9C-176.9,420.7-178.2,419.4-179.8,419.4z M-227.6,419.4h-2.7c-1.6,0-2.9,1.3-2.9,2.9c0,1.6,1.3,2.9,2.9,2.9
				l0,0h2.7c1.6,0,2.9-1.3,2.9-2.9C-224.8,420.7-226.1,419.4-227.6,419.4z"/>
		</g>
	</g>
</g>
<circle class="st1" cx="-5" cy="397" r="100"/>
<g>
	<g>
		<path class="st2" d="M33.2,343.1h-76.5c-5.6,0-10.1,4.5-10.1,10.1v87.6c0,5.6,4.5,10.1,10.1,10.1h0h76.5c5.6,0,10.1-4.5,10.1-10.1
			c0,0,0,0,0,0v-87.6C43.4,347.6,38.8,343.1,33.2,343.1C33.2,343.1,33.2,343.1,33.2,343.1z M34.8,440.5c0,0.9-0.7,1.5-1.5,1.5h-76.5
			c-0.9,0-1.5-0.7-1.5-1.5v-87.3c0-0.9,0.7-1.5,1.5-1.5l0,0h76.5c0.9,0,1.5,0.7,1.5,1.5v87.6V440.5z"/>
		<path class="st2" d="M-27.6,368.9h-2.7c-1.6,0-2.9,1.3-2.9,2.9c0,1.6,1.3,2.9,2.9,2.9l0,0h2.7c1.6,0,2.9-1.3,2.9-2.9
			C-24.7,370.1-26,368.9-27.6,368.9z M20.3,368.9h-32.4c-1.6,0-2.9,1.3-2.9,2.9c0,1.6,1.3,2.9,2.9,2.9l0,0h32.4
			c1.6,0,2.9-1.3,2.9-2.9C23.1,370.1,21.9,368.9,20.3,368.9z M-27.6,394.1h-2.7c-1.6,0-2.9,1.3-2.9,2.9c0,1.6,1.3,2.9,2.9,2.9h2.7
			c1.6,0,2.9-1.3,2.9-2.9S-26,394.1-27.6,394.1z M20.3,394.1h-32.4c-1.6,0-2.9,1.3-2.9,2.9c0,1.6,1.3,2.9,2.9,2.9h32.4
			c1.6,0,2.9-1.3,2.9-2.9S21.9,394.1,20.3,394.1z M20.3,419.4h-32.4c-1.6,0-2.9,1.3-2.9,2.9c0,1.6,1.3,2.9,2.9,2.9l0,0h32.4
			c1.6,0,2.9-1.3,2.9-2.9C23.1,420.7,21.9,419.4,20.3,419.4z M-27.6,419.4h-2.7c-1.6,0-2.9,1.3-2.9,2.9c0,1.6,1.3,2.9,2.9,2.9l0,0
			h2.7c1.6,0,2.9-1.3,2.9-2.9C-24.7,420.7-26,419.4-27.6,419.4z"/>
	</g>
</g>
</svg>
