<?xml version="1.0" encoding="utf-8"?>
<!-- Generator: Adobe Illustrator 19.0.0, SVG Export Plug-In . SVG Version: 6.00 Build 0)  -->
<svg version="1.1" id="图层_1" xmlns="http://www.w3.org/2000/svg" xmlns:xlink="http://www.w3.org/1999/xlink" x="0px" y="0px"
	 viewBox="-305 297 400 200" style="enable-background:new -305 297 400 200;" xml:space="preserve">
<style type="text/css">
	.st0{fill:#BABABA;}
	.st1{fill:#3654EA;}
	.st2{fill:#FFFFFF;}
</style>
<path class="st0" d="M-205.1,297c-55.2,0-100,44.8-100,100c0,55.2,44.8,100,100,100s100-44.8,100-100
	C-105.1,341.8-149.8,297-205.1,297z M-205.1,489c-50.8,0-92-41.2-92-92s41.2-92,92-92s92,41.2,92,92S-154.2,489-205.1,489z"/>
<circle class="st1" cx="-5" cy="397" r="100"/>
<g>
	<path class="st0" d="M-144.4,381.1c-4.9-3.6-9.8-7.3-14.6-10.9c-14.8-10.9-29.6-21.9-44-32.6c-1.4-1.1-2.7-1.1-4.2,0
		c-3.6,2.7-7.2,5.3-10.7,8c-3.6,2.7-7.2,5.4-10.9,8.1c-2.1,1.6-4.2,3.2-6.4,4.7c-5.8,4.3-11.7,8.7-17.6,13c-4.2,3-8.6,6.3-13.1,9.8
		c-1.3,1-1.6,2.5-0.6,3.8l1.4,2c0.4,0.6,1,1,1.7,1.1c0.7,0.1,1.3-0.1,2-0.5c0.3-0.2,0.5-0.4,0.8-0.6v61.6c0,1.7,1.2,2.9,2.9,2.9
		h105.4c1.7,0,2.9-1.2,2.9-2.9V387c0,0,0.1,0,0.1,0.1c0.2,0.1,0.4,0.3,0.6,0.5c1.3,0.9,2.8,0.7,3.7-0.6c0.3-0.4,0.6-0.8,0.8-1.2
		c0.2-0.2,0.3-0.5,0.5-0.7C-142.9,384-142.5,382.5-144.4,381.1z M-195.1,443.8C-195.1,443.8-195.1,443.8-195.1,443.8l-19.9,0
		c-0.1,0-0.1,0-0.2,0c0,0,0-0.1,0-0.1v-20.5c0-0.1,0-0.1,0-0.2c0,0,0,0,0.1,0h19.9c0,0,0,0,0.1,0c0,0,0,0,0,0.1l0,20.5
		C-195.1,443.6-195.1,443.7-195.1,443.8z M-190,415.2h-30.1c-1.6,0-2.8,1.2-2.8,2.9c0.1,5.7,0,11.5,0,17.1c0,2.8,0,5.7,0,8.5
		c0,0.1,0,0.2,0,0.2c0,0-0.1,0-0.2,0h-29.5c-0.1,0-0.1,0-0.1,0c0,0,0,0,0,0c0,0,0-0.1,0-0.2v-61.3c0-0.8,0.2-1.2,0.8-1.5
		c1.8-1.1,3.5-2.4,5.1-3.6l1.1-0.8c13.2-9.8,26.8-19.9,40.2-29.9c0.1-0.1,0.1-0.1,0.2-0.2l0.1-0.1c0.3-0.2,0.3-0.2,0.7,0
		c10.5,7.9,21.3,15.9,31.6,23.6c4.5,3.3,9,6.7,13.5,10c0.2,0.1,0.4,0.3,0.6,0.4c0.4,0.3,0.9,0.6,1.3,0.9c0.2,0.1,0.3,0.3,0.3,0.7
		v60.8c0,0.2,0,0.4,0.1,0.6c0,0.2,0.1,0.6,0,0.7c-0.2,0.1-0.6,0-0.8,0c-0.2,0-0.4,0-0.6,0h-28.3c-0.1,0-0.2,0-0.2,0c0,0,0-0.1,0-0.2
		V418C-187.1,416.4-188.3,415.2-190,415.2z"/>
	<path class="st0" d="M-192.7,380.4h-4c0.7-0.7,1.3-1.4,2-2.1c0.8-0.8,1.5-1.5,2.2-2.3c0.5-0.5,0.8-1.1,0.8-1.7
		c0-0.6-0.3-1.2-0.9-1.7c-0.2-0.2-0.4-0.4-0.6-0.6c-0.2-0.2-0.4-0.4-0.7-0.6c-0.6-0.6-1.3-0.9-1.9-0.9c-0.6,0-1.2,0.4-1.7,1
		c-1.3,1.4-2.6,2.8-4,4.2c-1.3,1.4-2.7,2.8-4,4.2c-0.1,0.1-0.2,0.1-0.2,0.1c0,0-0.1,0-0.2-0.1l-4.4-4.6c-0.6-0.7-1.2-1.3-1.9-2
		c-0.6-0.7-1.3-1.3-1.9-2c-1-1-2.2-1-3.1-0.2c-0.3,0.3-0.6,0.6-0.9,0.8c-0.3,0.3-0.6,0.6-0.9,0.9c-0.8,0.8-0.9,2-0.2,3
		c0.1,0.2,0.3,0.3,0.4,0.5c0.1,0.1,0.2,0.2,0.3,0.4l3.8,3.9h-4.3c-1.4,0-2.4,1-2.4,2.4v1.9c0,1.7,0.9,2.6,2.6,2.6h9.5c0,0,0,0,0.1,0
		c0,0,0,0,0,0.1v4.3c0,0.1,0,0.1,0,0.2c0,0,0,0-0.1,0h-9.6c-1.4,0-2.4,1-2.4,2.4v1.9c0,1.7,0.9,2.6,2.5,2.6h9.5c0,0,0,0,0.1,0
		c0,0,0,0,0,0.1v6.8c0,1.3,1,2.3,2.3,2.3h2.2c1.6,0,2.5-0.9,2.5-2.5v-6.5c0,0,0-0.1,0-0.1c0,0,0,0,0.1,0h9.3c1.4,0,2.4-1,2.4-2.4
		l0-1.9c-0.1-2-0.9-2.9-2.7-2.9h-9.2v-4.4c0,0,0,0,0-0.1c0,0,0.1,0,0.2,0h9.3c1.3,0,2.3-0.9,2.4-2.3v-2.2
		C-190.4,381.4-191.4,380.4-192.7,380.4z"/>
</g>
<g>
	<path class="st2" d="M55.1,381.1c-4.9-3.6-9.8-7.3-14.6-10.9c-14.8-10.9-29.6-21.9-44-32.6c-1.4-1.1-2.7-1.1-4.2,0
		c-3.6,2.7-7.2,5.3-10.7,8c-3.6,2.7-7.2,5.4-10.9,8.1c-2.1,1.6-4.2,3.2-6.4,4.7c-5.8,4.3-11.7,8.7-17.6,13c-4.2,3-8.6,6.3-13.1,9.8
		c-1.3,1-1.6,2.5-0.6,3.8l1.4,2c0.4,0.6,1,1,1.7,1.1c0.7,0.1,1.3-0.1,2-0.5c0.3-0.2,0.5-0.4,0.8-0.6v61.6c0,1.7,1.2,2.9,2.9,2.9
		H47.2c1.7,0,2.9-1.2,2.9-2.9V387c0,0,0.1,0,0.1,0.1c0.2,0.1,0.4,0.3,0.6,0.5c1.3,0.9,2.8,0.7,3.7-0.6c0.3-0.4,0.6-0.8,0.8-1.2
		c0.2-0.2,0.3-0.5,0.5-0.7C56.6,384,57,382.5,55.1,381.1z M4.4,443.8C4.4,443.8,4.4,443.8,4.4,443.8l-19.9,0c-0.1,0-0.1,0-0.2,0
		c0,0,0-0.1,0-0.1v-20.5c0-0.1,0-0.1,0-0.2c0,0,0,0,0.1,0H4.4c0,0,0,0,0.1,0c0,0,0,0,0,0.1l0,20.5C4.4,443.6,4.4,443.7,4.4,443.8z
		 M9.5,415.2h-30.1c-1.6,0-2.8,1.2-2.8,2.9c0.1,5.7,0,11.5,0,17.1c0,2.8,0,5.7,0,8.5c0,0.1,0,0.2,0,0.2c0,0-0.1,0-0.2,0h-29.5
		c-0.1,0-0.1,0-0.1,0c0,0,0,0,0,0c0,0,0-0.1,0-0.2v-61.3c0-0.8,0.2-1.2,0.8-1.5c1.8-1.1,3.5-2.4,5.1-3.6l1.1-0.8
		c13.2-9.8,26.8-19.9,40.2-29.9c0.1-0.1,0.1-0.1,0.2-0.2l0.1-0.1c0.3-0.2,0.3-0.2,0.7,0C5.4,354,16.1,362,26.5,369.7
		c4.5,3.3,9,6.7,13.5,10c0.2,0.1,0.4,0.3,0.6,0.4c0.4,0.3,0.9,0.6,1.3,0.9c0.2,0.1,0.3,0.3,0.3,0.7v60.8c0,0.2,0,0.4,0.1,0.6
		c0,0.2,0.1,0.6,0,0.7c-0.2,0.1-0.6,0-0.8,0c-0.2,0-0.4,0-0.6,0H12.6c-0.1,0-0.2,0-0.2,0c0,0,0-0.1,0-0.2V418
		C12.4,416.4,11.2,415.2,9.5,415.2z"/>
	<path class="st2" d="M6.8,380.4h-4c0.7-0.7,1.3-1.4,2-2.1c0.8-0.8,1.5-1.5,2.2-2.3c0.5-0.5,0.8-1.1,0.8-1.7c0-0.6-0.3-1.2-0.9-1.7
		c-0.2-0.2-0.4-0.4-0.6-0.6c-0.2-0.2-0.4-0.4-0.7-0.6c-0.6-0.6-1.3-0.9-1.9-0.9c-0.6,0-1.2,0.4-1.7,1c-1.3,1.4-2.6,2.8-4,4.2
		c-1.3,1.4-2.7,2.8-4,4.2c-0.1,0.1-0.2,0.1-0.2,0.1c0,0-0.1,0-0.2-0.1l-4.4-4.6c-0.6-0.7-1.2-1.3-1.9-2c-0.6-0.7-1.3-1.3-1.9-2
		c-1-1-2.2-1-3.1-0.2c-0.3,0.3-0.6,0.6-0.9,0.8c-0.3,0.3-0.6,0.6-0.9,0.9c-0.8,0.8-0.9,2-0.2,3c0.1,0.2,0.3,0.3,0.4,0.5
		c0.1,0.1,0.2,0.2,0.3,0.4l3.8,3.9h-4.3c-1.4,0-2.4,1-2.4,2.4v1.9c0,1.7,0.9,2.6,2.6,2.6h9.5c0,0,0,0,0.1,0c0,0,0,0,0,0.1v4.3
		c0,0.1,0,0.1,0,0.2c0,0,0,0-0.1,0h-9.6c-1.4,0-2.4,1-2.4,2.4v1.9c0,1.7,0.9,2.6,2.5,2.6h9.5c0,0,0,0,0.1,0c0,0,0,0,0,0.1v6.8
		c0,1.3,1,2.3,2.3,2.3h2.2c1.6,0,2.5-0.9,2.5-2.5v-6.5c0,0,0-0.1,0-0.1c0,0,0,0,0.1,0h9.3c1.4,0,2.4-1,2.4-2.4l0-1.9
		c-0.1-2-0.9-2.9-2.7-2.9h-9.2v-4.4c0,0,0,0,0-0.1c0,0,0.1,0,0.2,0h9.3c1.3,0,2.3-0.9,2.4-2.3v-2.2C9.1,381.4,8.1,380.4,6.8,380.4z"
		/>
</g>
</svg>
