<?xml version="1.0" encoding="utf-8"?>
<!-- Generator: Adobe Illustrator 19.0.0, SVG Export Plug-In . SVG Version: 6.00 Build 0)  -->
<svg version="1.1" id="图层_1" xmlns="http://www.w3.org/2000/svg" xmlns:xlink="http://www.w3.org/1999/xlink" x="0px" y="0px"
	 viewBox="-305 297 400 200" style="enable-background:new -305 297 400 200;" xml:space="preserve">
<style type="text/css">
	.st0{fill:#BABABA;}
	.st1{fill:#3654EA;}
	.st2{fill:#FFFFFF;}
</style>
<path class="st0" d="M-205.1,297c-55.2,0-100,44.8-100,100c0,55.2,44.8,100,100,100s100-44.8,100-100
	C-105.1,341.8-149.8,297-205.1,297z M-205.1,489c-50.8,0-92-41.2-92-92s41.2-92,92-92s92,41.2,92,92S-154.2,489-205.1,489z"/>
<circle class="st1" cx="-5" cy="397" r="100"/>
<path class="st0" d="M-164.8,408.6l4.3-4.6c9.1-9.1,9.1-24,0-33.1l-8.2-8.2c-4.4-4.4-10.3-6.9-16.6-6.9c0,0,0,0,0,0
	c-6.3,0-12.2,2.4-16.6,6.9l-3.9,4.1l-3.9-4.1c-9.1-9.1-24-9.1-33.1,0l-8.2,8.2c-9.1,9.1-9.2,24-0.1,33.1l7.3,7.7
	c-2.7,3.5-2.1,8.8,1.5,12.4c1.8,1.8,4,2.9,6.3,3.1c0.4,1.9,1.4,3.8,2.9,5.3c1.5,1.5,3.3,2.5,5.2,2.9c0.3,2.3,1.4,4.5,3.1,6.2
	c1.7,1.7,3.9,2.8,6.1,3.1c0.4,2,1.4,3.8,3,5.3c2,2,4.7,3.2,7.3,3.2c2.2,0,4.3-0.8,5.8-2.3l7.7-7.7c0.5-0.5,0.9-1.1,1.2-1.7l3.4,3.4
	c1.5,1.5,3.6,2.3,5.8,2.3c0.3,0,0.7,0,1-0.1c2.3-0.3,4.6-1.4,6.3-3.1c1.6-1.6,2.6-3.5,3-5.5c2-0.4,4-1.4,5.5-3
	c1.6-1.6,2.6-3.6,3-5.6c2.1-0.4,4-1.4,5.6-3c1.8-1.8,2.9-4,3.1-6.3c0.3-2.6-0.6-5.1-2.4-6.9L-164.8,408.6z M-174.1,430.2
	c-0.5,0.5-1.1,0.8-1.7,0.9c-0.2,0-0.3,0-0.4,0c-0.1-0.1-0.1-0.1-0.2-0.2l-13.3-13.3c-1.4-1.4-3.9-1.4-5.4,0
	c-0.7,0.7-1.1,1.7-1.1,2.7c0,1,0.4,2,1.1,2.7l12.5,12.5c0.2,0.3,0.4,0.6,0.6,0.9c0.1,0.1,0.2,0.1,0.2,0.2c0,0.5-0.2,1.3-0.9,2
	c-0.5,0.5-1.2,0.9-1.8,0.9c-0.3,0-0.5,0-0.6-0.1l-13-13c0.1-0.8,0.2-1.6,0.1-2.4c-0.3-2.3-1.4-4.6-3.1-6.3c-0.7-0.7-1.4-1.3-2.2-1.7
	c0.7-1.4,1-3,0.9-4.7c-0.2-2.4-1.3-4.8-3.1-6.6c-2-2-4.7-3.2-7.3-3.2c-1.4,0-2.8,0.3-4,1c-0.5-0.8-1.1-1.6-1.8-2.4
	c-2-2-4.7-3.2-7.3-3.2c-2.2,0-4.3,0.8-5.8,2.3l-6.8,6.8l-7.2-7.5c-3-3-4.6-7-4.6-11.2s1.6-8.2,4.6-11.2l8.2-8.2c3-3,7-4.6,11.2-4.6
	c0,0,0,0,0,0c4.2,0,8.2,1.6,11.1,4.5l4.1,4.4l-13.5,14.2c-1.1,1.2-1.4,2.9-0.6,4.4c0.1,0.2,2.2,4.3,7,5.3c3.7,0.8,7.7-0.4,12-3.6
	l8-7c1.3,0.7,3.2,1.5,5.5,2c-1.4,1.5-1.4,3.8,0.1,5.4l6.8,6.4c0.7,0.7,1.6,1,2.6,1c0,0,0,0,0,0c1,0,2-0.4,2.8-1.2
	c0.7-0.7,1.1-1.7,1-2.7c0-1-0.5-2-1.2-2.7l-6-5.6c4.9-0.1,10.8-1.7,17.1-6.6c1.6-1.3,1.9-3.7,0.6-5.3c-1.3-1.6-3.7-1.9-5.3-0.6
	c-12.5,9.7-21.7,2.6-22.1,2.3c-1.4-1.2-3.5-1.1-4.9,0.1l-9.8,8.6c-2.1,1.6-4,2.3-5.3,2.1l19.8-20.8c3-3,7-4.6,11.2-4.6
	s8.2,1.6,11.2,4.6l8.2,8.2c6.2,6.2,6.2,16.2-0.1,22.5l-4.4,4.7l-3.6-3.4c-0.7-0.7-1.7-1-2.7-1c-1,0-2,0.5-2.7,1.2
	c-0.7,0.7-1.1,1.7-1,2.7s0.5,2,1.2,2.7l14.6,13.6c0.1,0.1,0.1,0.3,0.1,0.6c-0.1,0.6-0.4,1.3-0.9,1.8c-0.9,0.9-2,1.1-2.3,0.9
	c0,0,0,0,0,0c0,0-0.1-0.1-0.2-0.1l-13.2-13.2c-1.4-1.4-3.9-1.4-5.4,0c-0.7,0.7-1.1,1.7-1.1,2.7c0,1,0.4,2,1.1,2.7l13.3,13.3
	c0,0,0,0,0,0C-173,428.1-173.1,429.2-174.1,430.2z M-237.8,416.3l11.5-11.5c0.1-0.1,0.3-0.1,0.4-0.1c0.6,0,1.4,0.4,2,0.9
	c1,1,1.1,2.1,0.8,2.4l-11.5,11.5c-0.1,0.1-0.3,0.1-0.4,0.1c-0.6,0-1.4-0.4-2-0.9C-238,417.6-238,416.5-237.8,416.3z M-228.5,424.6
	l15.3-15.3c0.1-0.1,0.3-0.1,0.4-0.1c0.6,0,1.4,0.4,2,0.9c1,1,1.1,2.1,0.8,2.4l-15.3,15.3c-0.1,0.1-0.3,0.1-0.4,0.1
	c-0.6,0-1.4-0.4-2-0.9c-0.5-0.5-0.9-1.2-0.9-1.8C-228.7,425-228.6,424.7-228.5,424.6z M-220.2,433.8l11.5-11.5
	c0.1-0.1,0.3-0.1,0.4-0.1c0.6,0,1.4,0.4,2,0.9c0.5,0.5,0.9,1.2,0.9,1.8c0,0.3,0,0.5-0.1,0.6L-217,437c-0.1,0.1-0.3,0.1-0.4,0.1
	c-0.6,0-1.4-0.4-2-0.9c-0.5-0.5-0.9-1.2-0.9-1.8C-220.4,434.1-220.3,433.9-220.2,433.8z M-210.3,444.6c-0.5-0.5-0.9-1.2-0.9-1.8
	c0-0.3,0-0.5,0.1-0.6l7.7-7.7c0.1-0.1,0.3-0.1,0.4-0.1c0.6,0,1.4,0.4,2,0.9c1,1,1.1,2.1,0.8,2.4l-7.7,7.7c-0.1,0.1-0.3,0.1-0.4,0.1
	C-209,445.5-209.7,445.2-210.3,444.6z"/>
<path class="st2" d="M33,408.6l4.3-4.6c9.1-9.1,9.1-24,0-33.1l-8.2-8.2c-4.4-4.4-10.3-6.9-16.6-6.9c0,0,0,0,0,0
	c-6.3,0-12.2,2.4-16.6,6.9l-3.9,4.1l-3.9-4.1c-9.1-9.1-24-9.1-33.1,0l-8.2,8.2c-9.1,9.1-9.2,24-0.1,33.1l7.3,7.7
	c-2.7,3.5-2.1,8.8,1.5,12.4c1.8,1.8,4,2.9,6.3,3.1c0.4,1.9,1.4,3.8,2.9,5.3c1.5,1.5,3.3,2.5,5.2,2.9c0.3,2.3,1.4,4.5,3.1,6.2
	c1.7,1.7,3.9,2.8,6.1,3.1c0.4,2,1.4,3.8,3,5.3c2,2,4.7,3.2,7.3,3.2c2.2,0,4.3-0.8,5.8-2.3l7.7-7.7c0.5-0.5,0.9-1.1,1.2-1.7l3.4,3.4
	c1.5,1.5,3.6,2.3,5.8,2.3c0.3,0,0.7,0,1-0.1c2.3-0.3,4.6-1.4,6.3-3.1c1.6-1.6,2.6-3.5,3-5.5c2-0.4,4-1.4,5.5-3
	c1.6-1.6,2.6-3.6,3-5.6c2.1-0.4,4-1.4,5.6-3c1.8-1.8,2.9-4,3.1-6.3c0.3-2.6-0.6-5.1-2.4-6.9L33,408.6z M23.7,430.2
	c-0.5,0.5-1.1,0.8-1.7,0.9c-0.2,0-0.3,0-0.4,0c-0.1-0.1-0.1-0.1-0.2-0.2L8.2,417.6c-1.4-1.4-3.9-1.4-5.4,0c-0.7,0.7-1.1,1.7-1.1,2.7
	c0,1,0.4,2,1.1,2.7l12.5,12.5c0.2,0.3,0.4,0.6,0.6,0.9c0.1,0.1,0.2,0.1,0.2,0.2c0,0.5-0.2,1.3-0.9,2c-0.5,0.5-1.2,0.9-1.8,0.9
	c-0.3,0-0.5,0-0.6-0.1l-13-13c0.1-0.8,0.2-1.6,0.1-2.4c-0.3-2.3-1.4-4.6-3.1-6.3c-0.7-0.7-1.4-1.3-2.2-1.7c0.7-1.4,1-3,0.9-4.7
	c-0.2-2.4-1.3-4.8-3.1-6.6c-2-2-4.7-3.2-7.3-3.2c-1.4,0-2.8,0.3-4,1c-0.5-0.8-1.1-1.6-1.8-2.4c-2-2-4.7-3.2-7.3-3.2
	c-2.2,0-4.3,0.8-5.8,2.3l-6.8,6.8l-7.2-7.5c-3-3-4.6-7-4.6-11.2s1.6-8.2,4.6-11.2l8.2-8.2c3-3,7-4.6,11.2-4.6c0,0,0,0,0,0
	c4.2,0,8.2,1.6,11.1,4.5l4.1,4.4l-13.5,14.2c-1.1,1.2-1.4,2.9-0.6,4.4c0.1,0.2,2.2,4.3,7,5.3c3.7,0.8,7.7-0.4,12-3.6l8-7
	c1.3,0.7,3.2,1.5,5.5,2c-1.4,1.5-1.4,3.8,0.1,5.4l6.8,6.4c0.7,0.7,1.6,1,2.6,1c0,0,0,0,0,0c1,0,2-0.4,2.8-1.2c0.7-0.7,1.1-1.7,1-2.7
	c0-1-0.5-2-1.2-2.7l-6-5.6c4.9-0.1,10.8-1.7,17.1-6.6c1.6-1.3,1.9-3.7,0.6-5.3c-1.3-1.6-3.7-1.9-5.3-0.6
	c-12.5,9.7-21.7,2.6-22.1,2.3c-1.4-1.2-3.5-1.1-4.9,0.1l-9.8,8.6c-2.1,1.6-4,2.3-5.3,2.1L1.3,368c3-3,7-4.6,11.2-4.6
	s8.2,1.6,11.2,4.6l8.2,8.2c6.2,6.2,6.2,16.2-0.1,22.5l-4.4,4.7l-3.6-3.4c-0.7-0.7-1.7-1-2.7-1c-1,0-2,0.5-2.7,1.2
	c-0.7,0.7-1.1,1.7-1,2.7s0.5,2,1.2,2.7l14.6,13.6c0.1,0.1,0.1,0.3,0.1,0.6c-0.1,0.6-0.4,1.3-0.9,1.8c-0.9,0.9-2,1.1-2.3,0.9
	c0,0,0,0,0,0c0,0-0.1-0.1-0.2-0.1l-13.2-13.2c-1.4-1.4-3.9-1.4-5.4,0c-0.7,0.7-1.1,1.7-1.1,2.7c0,1,0.4,2,1.1,2.7l13.3,13.3
	c0,0,0,0,0,0C24.8,428.1,24.7,429.2,23.7,430.2z M-40,416.3l11.5-11.5c0.1-0.1,0.3-0.1,0.4-0.1c0.6,0,1.4,0.4,2,0.9
	c1,1,1.1,2.1,0.8,2.4l-11.5,11.5c-0.1,0.1-0.3,0.1-0.4,0.1c-0.6,0-1.4-0.4-2-0.9C-40.2,417.6-40.2,416.5-40,416.3z M-30.7,424.6
	l15.3-15.3c0.1-0.1,0.3-0.1,0.4-0.1c0.6,0,1.4,0.4,2,0.9c1,1,1.1,2.1,0.8,2.4l-15.3,15.3c-0.1,0.1-0.3,0.1-0.4,0.1
	c-0.6,0-1.4-0.4-2-0.9c-0.5-0.5-0.9-1.2-0.9-1.8C-30.9,425-30.8,424.7-30.7,424.6z M-22.4,433.8l11.5-11.5c0.1-0.1,0.3-0.1,0.4-0.1
	c0.6,0,1.4,0.4,2,0.9c0.5,0.5,0.9,1.2,0.9,1.8c0,0.3,0,0.5-0.1,0.6L-19.2,437c-0.1,0.1-0.3,0.1-0.4,0.1c-0.6,0-1.4-0.4-2-0.9
	c-0.5-0.5-0.9-1.2-0.9-1.8C-22.6,434.1-22.5,433.9-22.4,433.8z M-12.5,444.6c-0.5-0.5-0.9-1.2-0.9-1.8c0-0.3,0-0.5,0.1-0.6l7.7-7.7
	c0.1-0.1,0.3-0.1,0.4-0.1c0.6,0,1.4,0.4,2,0.9c1,1,1.1,2.1,0.8,2.4l-7.7,7.7c-0.1,0.1-0.3,0.1-0.4,0.1
	C-11.2,445.5-12,445.2-12.5,444.6z"/>
</svg>
