<?xml version="1.0" encoding="utf-8"?>
<!-- Generator: Adobe Illustrator 19.0.0, SVG Export Plug-In . SVG Version: 6.00 Build 0)  -->
<svg version="1.1" id="图层_1" xmlns="http://www.w3.org/2000/svg" xmlns:xlink="http://www.w3.org/1999/xlink" x="0px" y="0px"
	 viewBox="-305 297 400 200" style="enable-background:new -305 297 400 200;" xml:space="preserve">
<style type="text/css">
	.st0{fill:#BABABA;}
	.st1{fill:#3654EA;}
	.st2{fill:#FFFFFF;}
</style>
<path class="st0" d="M-205.1,297c-55.2,0-100,44.8-100,100c0,55.2,44.8,100,100,100s100-44.8,100-100
	C-105.1,341.8-149.8,297-205.1,297z M-205.1,489c-50.8,0-92-41.2-92-92s41.2-92,92-92s92,41.2,92,92S-154.2,489-205.1,489z"/>
<circle class="st1" cx="-5" cy="397" r="100"/>
<g>
	<g>
		<path class="st0" d="M-171.2,349.4h-67.8c-5.6,0-10.2,4.6-10.2,10.2v81.3c0,5.6,4.6,10.2,10.2,10.2h67.8c5.6,0,10.2-4.6,10.2-10.2
			v-81.3C-161,354-165.6,349.4-171.2,349.4z M-198.3,356.2h13.6v17.4l-4.9-3.3c-1.1-0.8-2.6-0.8-3.8,0l-4.9,3.3V356.2z
			 M-242.3,440.9v-81.3c0-1.9,1.5-3.4,3.4-3.4h6.8v88.1h-6.8C-240.8,444.3-242.3,442.8-242.3,440.9z M-167.8,440.9
			c0,1.9-1.5,3.4-3.4,3.4h-54.2v-88.1h20.3v23.7c0,0.7,0.2,1.3,0.6,1.9c1,1.6,3.1,2,4.7,0.9l8.3-5.5l8.3,5.5
			c0.6,0.4,1.2,0.6,1.9,0.6c1.9,0,3.4-1.5,3.4-3.4v-23.7h6.8c1.9,0,3.4,1.5,3.4,3.4V440.9z"/>
		<path class="st0" d="M-171.2,451.6h-67.8c-5.9,0-10.7-4.8-10.7-10.7v-81.3c0-5.9,4.8-10.7,10.7-10.7h67.8
			c5.9,0,10.7,4.8,10.7,10.7v81.3C-160.5,446.8-165.3,451.5-171.2,451.6z M-238.9,349.9c-5.3,0-9.7,4.3-9.7,9.7v81.3
			c0,5.3,4.3,9.7,9.7,9.7h67.8c5.3,0,9.7-4.3,9.7-9.7v-81.3c0-5.3-4.3-9.7-9.7-9.7H-238.9z M-171.2,444.8h-54.7v-89.1h21.3v24.2
			c0,0.6,0.2,1.1,0.5,1.6c0.4,0.6,1.1,1.1,1.8,1.2c0.8,0.1,1.5,0,2.2-0.4l8.6-5.7l8.6,5.7c0.5,0.3,1,0.5,1.6,0.5c0,0,0,0,0,0
			c1.6,0,2.9-1.3,2.9-2.9v-24.2h7.3c2.1,0,3.9,1.7,3.9,3.9v81.3C-167.3,443-169,444.8-171.2,444.8z M-224.9,443.8h53.7
			c1.6,0,2.9-1.3,2.9-2.9v-81.3c0-1.6-1.3-2.9-2.9-2.9h-6.3v23.2c0,2.1-1.7,3.9-3.9,3.9c0,0,0,0,0,0c-0.8,0-1.5-0.2-2.2-0.7l-8-5.3
			l-8,5.3c-0.9,0.6-1.9,0.8-2.9,0.6c-1-0.2-1.9-0.8-2.5-1.7c-0.4-0.6-0.7-1.4-0.7-2.2v-23.2h-19.3V443.8z M-231.7,444.8h-7.3
			c-2.1,0-3.9-1.7-3.9-3.9v-81.3c0-2.1,1.7-3.9,3.9-3.9h7.3V444.8z M-241.8,440.9c0,1.6,1.3,2.9,2.9,2.9h6.3v-87.1h-6.3
			c-1.6,0-2.9,1.3-2.9,2.9V440.9L-241.8,440.9z M-184.2,374.5l-5.7-3.8c-1-0.6-2.2-0.6-3.2,0l-5.7,3.8v-18.8h14.6V374.5z
			 M-191.5,369.2c0.8,0,1.5,0.2,2.2,0.7l4.1,2.7v-16h-12.6v16l4.1-2.7C-193,369.5-192.3,369.2-191.5,369.2z"/>
	</g>
	<g>
		<path class="st0" d="M-181.3,427.3h-20.3c-1.9,0-3.4,1.5-3.4,3.4s1.5,3.4,3.4,3.4h20.3c1.9,0,3.4-1.5,3.4-3.4
			S-179.5,427.3-181.3,427.3z"/>
		<path class="st0" d="M-181.3,434.6h-20.3c-2.1,0-3.9-1.7-3.9-3.9s1.7-3.9,3.9-3.9h20.3c2.1,0,3.9,1.7,3.9,3.9
			S-179.2,434.6-181.3,434.6z M-201.7,427.8c-1.6,0-2.9,1.3-2.9,2.9s1.3,2.9,2.9,2.9h20.3c1.6,0,2.9-1.3,2.9-2.9s-1.3-2.9-2.9-2.9
			H-201.7z"/>
	</g>
</g>
<g>
	<g>
		<path class="st2" d="M28.2,349.4h-67.8c-5.6,0-10.2,4.6-10.2,10.2v81.3c0,5.6,4.6,10.2,10.2,10.2h67.8c5.6,0,10.2-4.6,10.2-10.2
			v-81.3C38.3,354,33.8,349.4,28.2,349.4z M1.1,356.2h13.6v17.4l-4.9-3.3c-1.1-0.8-2.6-0.8-3.8,0l-4.9,3.3V356.2z M-43,440.9v-81.3
			c0-1.9,1.5-3.4,3.4-3.4h6.8v88.1h-6.8C-41.5,444.3-43,442.8-43,440.9z M31.5,440.9c0,1.9-1.5,3.4-3.4,3.4H-26v-88.1h20.3v23.7
			c0,0.7,0.2,1.3,0.6,1.9c1,1.6,3.1,2,4.7,0.9l8.3-5.5l8.3,5.5c0.6,0.4,1.2,0.6,1.9,0.6c1.9,0,3.4-1.5,3.4-3.4v-23.7h6.8
			c1.9,0,3.4,1.5,3.4,3.4V440.9z"/>
		<path class="st2" d="M28.2,451.6h-67.8c-5.9,0-10.7-4.8-10.7-10.7v-81.3c0-5.9,4.8-10.7,10.7-10.7h67.8c5.9,0,10.7,4.8,10.7,10.7
			v81.3C38.8,446.8,34,451.5,28.2,451.6z M-39.6,349.9c-5.3,0-9.7,4.3-9.7,9.7v81.3c0,5.3,4.3,9.7,9.7,9.7h67.8
			c5.3,0,9.7-4.3,9.7-9.7v-81.3c0-5.3-4.3-9.7-9.7-9.7H-39.6z M28.2,444.8h-54.7v-89.1h21.3v24.2c0,0.6,0.2,1.1,0.5,1.6
			c0.4,0.6,1.1,1.1,1.8,1.2c0.8,0.1,1.5,0,2.2-0.4l8.6-5.7l8.6,5.7c0.5,0.3,1,0.5,1.6,0.5c0,0,0,0,0,0c1.6,0,2.9-1.3,2.9-2.9v-24.2
			h7.3c2.1,0,3.9,1.7,3.9,3.9v81.3C32,443,30.3,444.8,28.2,444.8z M-25.5,443.8h53.7c1.6,0,2.9-1.3,2.9-2.9v-81.3
			c0-1.6-1.3-2.9-2.9-2.9h-6.3v23.2c0,2.1-1.7,3.9-3.9,3.9c0,0,0,0,0,0c-0.8,0-1.5-0.2-2.2-0.7l-8-5.3l-8,5.3
			c-0.9,0.6-1.9,0.8-2.9,0.6c-1-0.2-1.9-0.8-2.5-1.7c-0.4-0.6-0.7-1.4-0.7-2.2v-23.2h-19.3V443.8z M-32.3,444.8h-7.3
			c-2.1,0-3.9-1.7-3.9-3.9v-81.3c0-2.1,1.7-3.9,3.9-3.9h7.3V444.8z M-42.5,440.9c0,1.6,1.3,2.9,2.9,2.9h6.3v-87.1h-6.3
			c-1.6,0-2.9,1.3-2.9,2.9V440.9L-42.5,440.9z M15.1,374.5l-5.7-3.8c-1-0.6-2.2-0.6-3.2,0l-5.7,3.8v-18.8h14.6V374.5z M7.8,369.2
			c0.8,0,1.5,0.2,2.2,0.7l4.1,2.7v-16H1.6v16l4.1-2.7C6.3,369.5,7.1,369.2,7.8,369.2z"/>
	</g>
	<g>
		<path class="st2" d="M18,427.3H-2.3c-1.9,0-3.4,1.5-3.4,3.4s1.5,3.4,3.4,3.4H18c1.9,0,3.4-1.5,3.4-3.4S19.9,427.3,18,427.3z"/>
		<path class="st2" d="M18,434.6H-2.3c-2.1,0-3.9-1.7-3.9-3.9s1.7-3.9,3.9-3.9H18c2.1,0,3.9,1.7,3.9,3.9S20.1,434.6,18,434.6z
			 M-2.3,427.8c-1.6,0-2.9,1.3-2.9,2.9s1.3,2.9,2.9,2.9H18c1.6,0,2.9-1.3,2.9-2.9s-1.3-2.9-2.9-2.9H-2.3z"/>
	</g>
</g>
</svg>
