<?xml version="1.0" encoding="utf-8"?>
<!-- Generator: Adobe Illustrator 19.0.0, SVG Export Plug-In . SVG Version: 6.00 Build 0)  -->
<svg version="1.1" id="图层_1" xmlns="http://www.w3.org/2000/svg" xmlns:xlink="http://www.w3.org/1999/xlink" x="0px" y="0px"
	 viewBox="-212 335.8 170.1 170.1" style="enable-background:new -212 335.8 170.1 170.1;" xml:space="preserve">
<style type="text/css">
	.st0{fill:#1A96E2;}
	.st1{fill:#F2531C;}
</style>
<path class="st0" d="M-126.9,475.3c-7.2,0-14.2-1.4-20.9-4.2c-6.4-2.7-12.1-6.6-17-11.5c-4.9-4.9-8.8-10.6-11.5-17
	c-2.8-6.6-4.2-13.6-4.2-20.9c0-7.2,1.4-14.2,4.2-20.9c2.7-6.4,6.6-12.1,11.5-17c4.9-4.9,10.6-8.8,17-11.5c6.6-2.8,13.6-4.2,20.9-4.2
	s14.2,1.4,20.9,4.2c6.4,2.7,12.1,6.6,17,11.5c4.9,4.9,8.8,10.6,11.5,17c2.8,6.6,4.2,13.6,4.2,20.9c0,7.2-1.4,14.2-4.2,20.9
	c-2.7,6.4-6.6,12.1-11.5,17c-4.9,4.9-10.6,8.8-17,11.5C-112.7,473.8-119.7,475.3-126.9,475.3z M-126.9,377.6
	c-24.3,0-44.1,19.8-44.1,44.1c0,24.3,19.8,44.1,44.1,44.1c24.3,0,44.1-19.8,44.1-44.1C-82.8,397.4-102.6,377.6-126.9,377.6z"/>
<path class="st0" d="M-91.2,429l-3.2-8.9c9.2-3.3,16.7-7.1,21.7-10.9c4.5-3.5,5.9-6.2,5.6-7.5c-0.4-2.5-7.1-6.7-23.7-7.7l0.6-9.4
	c8.6,0.5,15.7,1.9,21,4.1c8.3,3.3,10.8,8.1,11.4,11.4c0.5,3.1-0.2,6.2-2.1,9.3c-1.6,2.5-3.9,5-7.1,7.4
	C-72.7,421.1-81.1,425.4-91.2,429z"/>
<path class="st0" d="M-155.3,440.2c-9.8,0-18.5-1-25.1-2.9c-4.1-1.2-7.5-2.7-10.1-4.6c-3.2-2.3-5-5.1-5.6-8.4
	c-1.4-8.2,5.9-16.4,21.3-23.9l4.1,8.5c-13.5,6.5-16.5,11.8-16.1,13.7c0.3,1.4,2.7,3.7,8.9,5.5c6.7,1.9,16,2.7,26.7,2.4l0.3,9.4
	C-152.4,440.2-153.9,440.2-155.3,440.2z"/>
<path class="st1" d="M-103.6,424.4c-1.5,0.3-11.8,2.2-11.8,2.2l-17.4-16.4l-4,0.5l8.5,18.4l-8.9,1.5l-9.6-6.1l-1.8-0.1l5.5,11.3
	l-1.5,12.5l1.7-0.7l6.7-8.7c0,0,30.9-5.7,34-6.3c3.4-0.6,4.5-2,3.9-5.1C-98.7,424.8-100.8,423.9-103.6,424.4z M-126.7,438.6
	l-2.2,17.9l3.4-0.8l10.5-19.2L-126.7,438.6L-126.7,438.6L-126.7,438.6L-126.7,438.6z"/>
</svg>
