<?xml version="1.0" encoding="utf-8"?>
<!-- Generator: Adobe Illustrator 19.0.0, SVG Export Plug-In . SVG Version: 6.00 Build 0)  -->
<svg version="1.1" id="图层_1" xmlns="http://www.w3.org/2000/svg" xmlns:xlink="http://www.w3.org/1999/xlink" x="0px" y="0px"
	 viewBox="-197 320.9 200 200" style="enable-background:new -197 320.9 200 200;" xml:space="preserve">
<style type="text/css">
	.st0{fill:#F9F7B7;}
</style>
<path d="M-20.6,393.3c-4.2-9.9-10.2-18.7-17.8-26.4c-6.3-6.3-13.6-11.6-21.6-15.6c1.6-4.3,1.5-8.7-0.4-12.8c-1-2.2-2.9-5.4-5-7.3
	c-1.5-1.4-5.7-5.5-7.9-3.1c-1.4,1.5-0.3,4-0.8,7.3c-0.5,3.3-3.1,7.3-7.8,8.5c-5-0.9-10.1-1.4-15.2-1.4c-11.2,0-22,2.2-32.3,6.5
	c-9.9,4.2-18.7,10.2-26.4,17.8c-7.6,7.6-13.6,16.5-17.8,26.4c-4.3,10.2-6.5,21.1-6.5,32.3c0,11.2,2.2,22,6.5,32.3
	c4.2,9.9,10.2,18.7,17.8,26.4c7.6,7.6,16.5,13.6,26.4,17.8c10.2,4.3,21.1,6.5,32.3,6.5s22-2.2,32.3-6.5c9.9-4.2,18.7-10.2,26.4-17.8
	c7.6-7.6,13.6-16.5,17.8-26.4c4.3-10.2,6.5-21.1,6.5-32.3C-14.1,414.4-16.3,403.5-20.6,393.3z"/>
<path class="st0" d="M-46.9,475.6C-60.3,489-78.1,496.4-97,496.4s-36.7-7.4-50.1-20.7c-13.4-13.4-20.7-31.2-20.7-50.1
	c0-8.5,1.5-16.9,4.4-24.8c2.9-7.9,7.2-15.1,12.8-21.5c2.2,3.3,5.9,6.2,11,8.9c2.7,1.4,5.9,0.5,7.6-2c5.2-7.9,11.9-13.5,19.9-16.7
	c-3.2,2.9-7.7,8.3-11.3,17.4c-0.6,1.6-0.5,3.4,0.3,5c0.8,1.5,2.3,2.6,4,2.9c7,1.3,14.4,2,22.1,2c12.3,0,24-1.7,33.8-4.9
	c5.5-1.8,15.3-5.8,19.8-12.5c5.5,6.4,9.8,13.6,12.8,21.5c2.9,7.9,4.4,16.2,4.4,24.8C-26.2,444.5-33.6,462.3-46.9,475.6z"/>
<path d="M-130.5,425.6c0-5.4,4.4-9.7,9.7-9.7c5.4,0,9.7,4.4,9.7,9.7s-4.4,9.7-9.7,9.7C-126.1,435.3-130.5,431-130.5,425.6
	L-130.5,425.6z"/>
<path d="M-83,425.6c0-5.4,4.4-9.7,9.7-9.7s9.7,4.4,9.7,9.7s-4.4,9.7-9.7,9.7S-83,431-83,425.6L-83,425.6z"/>
<path d="M-97.5,455.9c0.2,0,0.4,0,0.5,0c14.1,0.1,27,4.3,35.5,11.4c2.6,2.2,2.9,6,0.7,8.5c-2.2,2.6-6,2.9-8.5,0.7
	c-6.2-5.3-16.6-8.4-27.8-8.5c-11.2-0.1-21.6,3.1-27.6,8.4c-2.5,2.2-6.3,2-8.5-0.5c-2.2-2.5-2-6.3,0.5-8.5
	C-124.4,460-111.6,455.9-97.5,455.9z"/>
</svg>
