<?xml version="1.0" encoding="utf-8"?>
<!-- Generator: Adobe Illustrator 19.0.0, SVG Export Plug-In . SVG Version: 6.00 Build 0)  -->
<svg version="1.1" id="图层_1" xmlns="http://www.w3.org/2000/svg" xmlns:xlink="http://www.w3.org/1999/xlink" x="0px" y="0px"
	 viewBox="-212 335.8 170.1 170.1" style="enable-background:new -212 335.8 170.1 170.1;" xml:space="preserve">
<style type="text/css">
	.st0{fill:#EF0F0F;}
</style>
<path class="st0" d="M-125.2,459.2c-10.6,0-42.6-20.6-50.3-20.6c-7.7,0-20.6,4.6-20.6,4.6l-2.3-9.1c0,0,15.1-4.6,25.1-4.6
	s44,20.6,50.3,20.6c6.3,0,21-11,38.9-20.6c17.9-9.6,20.7-12,18.3-16s-25.4,5.9-38.9,11.4c-15.9,6.9-41.2,4.6-41.2,4.6v-9.1
	c0,0,22,1.8,34.3-2.3c0.5-0.2,1.2-0.5,1.9-0.8c-8.4-2.6-35.3-10.6-45.4-10.6c-12.1,0-45.7,9.1-45.7,9.1l-2.3-9.1c0,0,29-9.1,48-9.1
	s50.3,11.4,50.3,11.4l-1.7,6.9c9.7-4.2,27.6-11.5,36-11.5c10.4,0,18.7,5.1,18.3,13.7S-114.6,459.2-125.2,459.2z"/>
</svg>
