<?xml version="1.0" encoding="utf-8"?>
<!-- Generator: Adobe Illustrator 19.0.0, SVG Export Plug-In . SVG Version: 6.00 Build 0)  -->
<svg version="1.1" id="图层_1" xmlns="http://www.w3.org/2000/svg" xmlns:xlink="http://www.w3.org/1999/xlink" x="0px" y="0px"
	 viewBox="-212 335.8 170.1 170.1" style="enable-background:new -212 335.8 170.1 170.1;" xml:space="preserve">
<style type="text/css">
	.st0{fill:#EF2950;}
	.st1{fill:#F3F90B;}
</style>
<path class="st0" d="M-95.3,426.9c-0.3,0-0.6,0-1,0c0,0,0,0,0,0c-3.7-2.5-7.8-4.6-12.6-6.4c0,0,0,0,0,0c8.5-6.2,14-16.3,14-27.6
	c0-18.9-15.4-34.3-34.3-34.3c-18.9,0-34.3,15.4-34.3,34.3c0,11.5,5.7,21.6,14.3,27.8c0,0,0,0,0,0c-39.5,14.2-39.5,56.8-39.5,56.8
	h8.5c0,0,4.4-50.9,50.9-50.9c8,0,14.8,1.5,20.5,4c-7.3,4.5-12.2,12.5-12.2,21.7c0,14.1,11.4,25.5,25.5,25.5c6.2,0,11.8-2.2,16.2-5.9
	c3-2.5,5.5-5.8,7.1-9.4c1.4-3.1,2.1-6.6,2.1-10.2C-69.8,438.3-81.2,426.9-95.3,426.9z"/>
<path class="st1" d="M-129.1,418.7c-14.2,0-25.8-11.6-25.8-25.8c0-14.2,11.6-25.8,25.8-25.8c14.2,0,25.8,11.6,25.8,25.8
	C-103.3,407.2-114.9,418.7-129.1,418.7z"/>
<path class="st1" d="M-99.9,469c-5.8-6.2-12.6-10.9-17.4-12.4l11.2-5.9l5.4,9.1c0,0,8.9-18.6,22.8-24.8c-0.3,4.4-1.7,8.3,0.7,13
	C-83.2,449.2-95.8,462.5-99.9,469z"/>
</svg>
