<?xml version="1.0" encoding="utf-8"?>
<!-- Generator: Adobe Illustrator 19.0.0, SVG Export Plug-In . SVG Version: 6.00 Build 0)  -->
<svg version="1.1" id="图层_1" xmlns="http://www.w3.org/2000/svg" xmlns:xlink="http://www.w3.org/1999/xlink" x="0px" y="0px"
	 viewBox="-212 335.8 170.1 170.1" style="enable-background:new -212 335.8 170.1 170.1;" xml:space="preserve">
<style type="text/css">
	.st0{fill:#19BF88;}
</style>
<path class="st0" d="M-69.9,424.5c1.9,1.8,4.8,1.7,6.6-0.2c1.8-1.9,1.7-4.8-0.2-6.6l-60-56.5l0,0c-1.9-1.8-4.9-1.7-6.6,0.2l-0.1,0.1
	l-60.2,55.6l3.2,3.4l-3.2-3.4c-1.9,1.8-2,4.7-0.3,6.6c0.9,1,2.2,1.5,3.4,1.5v0h15.7v51.8c0,2.6,2.1,4.7,4.7,4.7h23.3
	c2.6,0,4.7-2.1,4.7-4.7v-27.5h24.4v27.5c0,2.6,2.1,4.7,4.7,4.7h23.3c2.6,0,4.7-2.1,4.7-4.7v-50c0-2.6-2.1-4.7-4.7-4.7
	c-2.6,0-4.7,2.1-4.7,4.7v45.3h-13.9v-27.5c0-2.6-2.1-4.7-4.7-4.7h-33.7c-2.6,0-4.7,2.1-4.7,4.7v27.5h-13.9v-51.8
	c0-2.6-2.1-4.7-4.7-4.7h-8.4l48.6-44.9L-69.9,424.5L-69.9,424.5L-69.9,424.5z"/>
</svg>
