<?xml version="1.0" encoding="utf-8"?>
<!-- Generator: Adobe Illustrator 19.0.0, SVG Export Plug-In . SVG Version: 6.00 Build 0)  -->
<svg version="1.1" id="图层_1" xmlns="http://www.w3.org/2000/svg" xmlns:xlink="http://www.w3.org/1999/xlink" x="0px" y="0px"
	 viewBox="-123.9 335.9 170.1 170.1" style="enable-background:new -123.9 335.9 170.1 170.1;" xml:space="preserve">
<style type="text/css">
	.st0{fill:#2081D1;}
	.st1{fill:#FCFC00;}
	.st2{fill:#FFFFFF;}
</style>
<path class="st0" d="M18.1,448.8v-43.7H2.4c0.3-2.2,0.7-4.3,0.7-6.6c0-24.1-19.5-43.7-43.4-43.7c-24,0-43.4,19.6-43.4,43.7
	c0,2.3,0.3,4.5,0.7,6.6l-12.6,0v43.7c-5.5,1.4-9.6,6.1-9.6,12c0,6.9,5.6,12.6,12.6,12.6s12.6-5.6,12.6-12.6
	c0-6.3-4.7-11.3-10.8-12.2v-38.7l8.9,0c5,18.5,21.5,32.1,41.4,32.2v21c-5.5,1.4-9.6,6.1-9.6,12c0,6.9,5.6,12.6,12.6,12.6
	c6.9,0,12.6-5.6,12.6-12.6c0,0,0,0,0,0c0-6.3-4.7-11.3-10.8-12.2v-21.2c17.8-1.9,32.7-14.5,37.3-31.9h11.9v38.7
	c-6.1,0.9-10.9,5.9-10.9,12.2c0,6.9,5.6,12.6,12.6,12.6c6.9,0,12.6-5.6,12.6-12.6c0,0,0,0,0,0C27.6,454.9,23.5,450.2,18.1,448.8
	L18.1,448.8z"/>
<path class="st1" d="M-86.2,460.8c0.1,3.6-2.7,6.7-6.3,6.8c-3.6,0.1-6.7-2.7-6.8-6.3c0-0.2,0-0.3,0-0.5c0.1-3.6,3.2-6.5,6.8-6.3
	C-89.1,454.6-86.3,457.3-86.2,460.8z"/>
<path class="st1" d="M-31.1,475.1c0.1,3.6-2.7,6.7-6.3,6.8c-3.6,0.1-6.7-2.7-6.8-6.3c0-0.2,0-0.3,0-0.5c0.1-3.6,3.2-6.5,6.8-6.3
	C-34,468.9-31.3,471.7-31.1,475.1z"/>
<path class="st1" d="M-40.4,436.2c-9.5,0-18.6-3.7-25.5-10.2c2.7-4.5,6.5-8.3,11-11c4.1,3.1,9.1,4.8,14.2,4.8c6,0,11.8-2.3,16.2-6.4
	c4.9,2.3,9,5.8,12.2,10C-19.2,431.2-29.2,436.2-40.4,436.2L-40.4,436.2z"/>
<path class="st2" d="M-58.9,395.6c0-2.4,0.5-4.7,1.3-6.8c2.7-7,9.4-11.5,16.9-11.6c7.7,0,14.6,4.9,17.1,12.2c0.7,1.9,1.1,4,1.1,6.2
	c0,10.1-8.2,18.3-18.2,18.3S-58.9,405.8-58.9,395.6z"/>
<path class="st1" d="M-8.6,418.3c-3.3-4-7.4-7.3-12-9.7c7.2-11.1,4-26-7.1-33.2c-3.9-2.5-8.4-3.8-13-3.8c-13.3,0-24,10.8-24,24.1
	c0,0,0,0,0,0c0,5.7,2.1,10.9,5.4,15c-4.3,2.8-7.9,6.4-10.7,10.6c-5-6.5-7.8-14.5-7.8-22.8c0-20.8,16.8-37.7,37.5-37.7
	c20.7,0,37.5,16.9,37.5,37.7C-2.9,405.5-4.9,412.4-8.6,418.3L-8.6,418.3z"/>
<path class="st1" d="M15,467.4c-3.6,0.1-6.7-2.7-6.8-6.3s2.7-6.7,6.3-6.8c0.2,0,0.3,0,0.5,0c3.6,0.1,6.5,3.2,6.3,6.8
	C21.2,464.5,18.4,467.2,15,467.4z"/>
<path class="st1" d="M-40.7,414c10.1,0,18.3-8.3,18.2-18.3c0,0,0,0,0,0c0-2.2-0.4-4.2-1.1-6.2c-3.4,6.1-9.8,9.9-16.8,10
	c-7.3,0-13.9-4.1-17.2-10.6c-3.7,9.4,0.8,20.1,10.2,23.8C-45.2,413.5-43,414-40.7,414z"/>
</svg>
