<?xml version="1.0" encoding="utf-8"?>
<!-- Generator: Adobe Illustrator 19.0.0, SVG Export Plug-In . SVG Version: 6.00 Build 0)  -->
<svg version="1.1" id="图层_1" xmlns="http://www.w3.org/2000/svg" xmlns:xlink="http://www.w3.org/1999/xlink" x="0px" y="0px"
	 viewBox="-212 335.8 170.1 170.1" style="enable-background:new -212 335.8 170.1 170.1;" xml:space="preserve">
<style type="text/css">
	.st0{fill:#FFF206;}
</style>
<path d="M-53.6,469.3L-94,396.1c0,0-2.4-4.5-5.9-4.5h-0.1h-0.1c-3.5,0-5.9,4.5-5.9,4.5l-40.4,73.2c0,0-2.7,4.2-0.7,7.3
	c1.9,3,7,2.5,7,2.5h80c0,0,5.1,0.4,7-2.5C-50.9,473.5-53.6,469.3-53.6,469.3L-53.6,469.3z"/>
<path class="st0" d="M-67.5,468.6c-0.5,1-2.7,0.8-2.7,0.8h-59.9c0,0-2,0.1-2.6-0.8c-0.6-0.9,0.8-3.1,0.8-3.1l30-56.4
	c0,0,1.1-2.1,2.3-2.1c1.1,0,2.1,2.2,2.1,2.2l29.3,56.7C-68.1,465.9-67.1,467.7-67.5,468.6L-67.5,468.6z"/>
<path d="M-167.5,412.4c-3.4,0-6.1,2.7-6.1,6.1s2.7,6.1,6.1,6.1h26.8c3.4,0,6.1-2.7,6.1-6.1s-2.7-6.1-6.1-6.1H-167.5z M-119.6,393.5
	c0-3.4-2.7-6.1-6.1-6.1h-41.8c-3.4,0-6.1,2.7-6.1,6.1s2.7,6.1,6.1,6.1h41.8C-122.3,399.6-119.6,396.9-119.6,393.5z M-155.3,437.2
	h-11.8c-3.4,0-6.1,2.7-6.1,6.1s2.7,6.1,6.1,6.1h11.8c3.4,0,6.1-2.7,6.1-6.1S-151.9,437.2-155.3,437.2z"/>
<path d="M-164.1,469.9c-0.3,0-0.6,0-0.8,0.1h-22.8v-98h100.9v9.2c0.1,3.5,3,6.2,6.5,6.2s6.4-2.8,6.5-6.2v-12.3c0-5.5-4.5-10-10-10
	h-107.8c-5.5,0-10,4.5-10,10v103.8c0,5.5,4.5,10,10,10h27.5c3.6,0,6.4-2.9,6.4-6.4S-160.6,469.9-164.1,469.9z"/>
<g>
	<path d="M-99.9,449.5c2.5,0,4.5-2,4.5-4.5v-18.4c0-2.5-2-4.5-4.5-4.5s-4.5,2-4.5,4.5V445C-104.4,447.4-102.4,449.5-99.9,449.5z"/>
	<path d="M-103.9,458.4c0,2.4,2,4.4,4.4,4.4s4.4-2,4.4-4.4l0,0c0-2.4-2-4.4-4.4-4.4S-103.9,456-103.9,458.4L-103.9,458.4z"/>
</g>
</svg>
