<?xml version="1.0" encoding="utf-8"?>
<!-- Generator: Adobe Illustrator 19.0.0, SVG Export Plug-In . SVG Version: 6.00 Build 0)  -->
<svg version="1.1" id="图层_1" xmlns="http://www.w3.org/2000/svg" xmlns:xlink="http://www.w3.org/1999/xlink" x="0px" y="0px"
	 viewBox="-212 335.8 170.1 170.1" style="enable-background:new -212 335.8 170.1 170.1;" xml:space="preserve">
<style type="text/css">
	.st0{fill:#2E2EED;}
	.st1{fill:#E51F1F;}
</style>
<path class="st0" d="M-110,454.3c0,3.5,2.8,5.3,6.5,5.3h34.4c3.5,0,6.5-1.8,6.5-5.3c0-3.7-2.8-4.8-6.5-4.8h-34.6
	C-107.2,449.5-110,450.8-110,454.3"/>
<path class="st0" d="M-110,475.7c0,3.5,2.8,5.3,6.5,5.3h34.4c3.5,0,6.5-1.8,6.5-5.3c0-3.7-2.8-4.8-6.5-4.8h-34.6
	C-107.2,470.8-110,472.1-110,475.7"/>
<path class="st1" d="M-87.6,426.9l-0.3-0.3c-5-3.8-10.1-7.5-16.1-9.8c7.7-6.5,12.5-16.1,12.5-26.9c0-19.6-16-35.6-35.6-35.6
	c-19.6,0-35.6,16-35.6,35.6c0,10.8,4.8,20.5,12.5,26.9c-24.1,9.3-41.4,32.8-41.4,60.4c0,3.5,1.7,6.3,5.2,6.3c3.7,0,3.8-2.7,3.8-6.2
	c0-28.4,17.1-55.4,55.7-54.7c11.6,0.3,25.4,4.7,33.8,11.6c2,1.7,2.7,1.8,3.7,2h0.5c3.5,0,4.5-0.8,4.5-4.5
	C-84.6,429.7-86.1,427.9-87.6,426.9z M-127.1,415.4c-18.5,0-27.3-13.1-27.3-25.6s10-27.1,27.3-27.1c20,0,27.3,14.8,27.3,27.3
	C-99.9,402.4-111.5,415.9-127.1,415.4z"/>
</svg>
