<?xml version="1.0" encoding="utf-8"?>
<!-- Generator: Adobe Illustrator 19.0.0, SVG Export Plug-In . SVG Version: 6.00 Build 0)  -->
<svg version="1.1" id="图层_1" xmlns="http://www.w3.org/2000/svg" xmlns:xlink="http://www.w3.org/1999/xlink" x="0px" y="0px"
	 viewBox="-123.9 335.9 170.1 170.1" style="enable-background:new -123.9 335.9 170.1 170.1;" xml:space="preserve">
<style type="text/css">
	.st0{fill:#73C3EF;}
	.st1{fill:#1393EA;}
</style>
<path class="st0" d="M38.2,460.4C38.2,460.4,38.2,460.4,38.2,460.4c0,2.1-1.7,3.8-3.8,3.8H6.2c2.1-0.5,3.7-2.4,3.7-4.6c0,0,0,0,0,0
	h0c0,0,0-17.3-12.6-23.7c-5.4-2.7-5.7-2.2-8.4-2.8l0.1-7.5c0,0-2.9-2.3-3.8-9.4c-1.8,0.5-2.4-2.2-2.6-3.9c-0.1-1.7-1.1-6.9,1.2-6.4
	c-0.5-3.5-0.8-6.6-0.6-8.3c0.6-5.8,6.1-11.9,14.7-12.4c10.1,0.5,14.1,6.5,14.7,12.4c0.2,1.7-0.2,4.8-0.7,8.3
	c2.2-0.5,1.3,4.7,1.2,6.4c-0.1,1.7-0.7,4.4-2.6,3.9c-0.9,7.1-3.8,9.3-3.8,9.3l0.1,7.5c0,0,1.9,1.1,9.7,4.3c7.8,3.3,5.4,0.8,11.8,4
	C38.2,446.5,38.2,460.4,38.2,460.4L38.2,460.4L38.2,460.4z"/>
<path class="st1" d="M-18.7,434.8c8.6,3.6,5.9,0.9,12.9,4.4c11.1,5.6,11.1,20.9,11.1,20.9h0v0c0,2.3-1.9,4.2-4.2,4.2h-80.6
	c-2.3,0-4.2-1.9-4.2-4.2v0l0,0c0,0,0-15.3,11.1-20.9c7-3.5,4.3-0.7,12.9-4.3c8.6-3.6,10.7-4.9,10.7-4.9l0.1-8.3
	c0,0-3.2-2.5-4.2-10.3c-2,0.6-2.7-2.4-2.8-4.3c-0.1-1.8-1.2-7.5,1.3-7c-0.5-3.8-0.9-7.3-0.7-9.1c0.6-6.4,6.7-13.1,16.2-13.6
	c11.1,0.5,15.5,7.2,16.1,13.6c0.2,1.8-0.2,5.3-0.7,9.1c2.5-0.5,1.4,5.2,1.3,7c-0.1,1.9-0.8,4.9-2.8,4.3c-1,7.8-4.2,10.3-4.2,10.3
	l0.1,8.2C-29.4,430-27.3,431.2-18.7,434.8z"/>
<path class="st0" d="M-62.5,416.2c-0.9,7.1-3.9,9.4-3.9,9.4l0.1,7.5c-2.7,0.6-3,0.1-8.5,2.8c-12.7,6.3-12.7,23.7-12.7,23.7l0,0
	c0,0,0,0,0,0c0,2.3,1.6,4.2,3.7,4.6h-28.5c-2.1,0-3.8-1.7-3.8-3.8v0l0,0c0,0,0-13.9,10.2-19c6.4-3.2,4-0.8,11.9-4
	c7.9-3.3,9.8-4.3,9.8-4.3l0.1-7.5c0,0-3-2.2-3.9-9.3c-1.9,0.5-2.5-2.2-2.6-3.9c-0.1-1.7-1.1-6.9,1.2-6.4c-0.5-3.5-0.8-6.6-0.7-8.3
	c0.6-5.8,4.6-11.9,14.8-12.4c8.6,0.4,14.3,6.5,14.8,12.4c0.2,1.7-0.2,4.8-0.6,8.3c2.3-0.5,1.3,4.7,1.2,6.4
	C-60,414.1-60.6,416.8-62.5,416.2z"/>
</svg>
