<?xml version="1.0" encoding="utf-8"?>
<!-- Generator: Adobe Illustrator 19.0.0, SVG Export Plug-In . SVG Version: 6.00 Build 0)  -->
<svg version="1.1" id="图层_1" xmlns="http://www.w3.org/2000/svg" xmlns:xlink="http://www.w3.org/1999/xlink" x="0px" y="0px"
	 viewBox="-123.9 335.9 170.1 170.1" style="enable-background:new -123.9 335.9 170.1 170.1;" xml:space="preserve">
<style type="text/css">
	.st0{fill:#F21414;}
</style>
<path d="M28.7,381.6l-25-26.5c-1-1-2.8-0.8-4.2,0.5c-1.3,1.3-1.7,3.1-0.7,4.1l9.1,9.6L-6,382.5l7,7.4l13.9-13.1l8.9,9.5
	c1,1,2.8,0.8,4.2-0.5C29.3,384.5,29.6,382.6,28.7,381.6"/>
<path class="st0" d="M-30.5,406.3c0.4,0.4,1,0.4,1.3,0c0,0,0,0,0,0c0.4-0.4,0.4-1,0-1.3l-3.4-3.4c-0.4-0.4-1-0.4-1.3,0c0,0,0,0,0,0
	c-0.4,0.4-0.4,1,0,1.3L-30.5,406.3L-30.5,406.3z"/>
<path class="st0" d="M-26.3,402.1c0.4,0.4,1,0.4,1.3,0c0.4-0.4,0.4-1,0-1.3l-3.4-3.4c-0.4-0.4-1-0.4-1.3,0c-0.4,0.4-0.4,1,0,1.3
	C-29.7,398.7-26.3,402.1-26.3,402.1z"/>
<path class="st0" d="M-24.2,393.2c-0.4-0.4-1-0.4-1.3,0c0,0,0,0,0,0c-0.4,0.4-0.4,1,0,1.3c0,0,0,0,0,0l3.4,3.4c0.4,0.4,1,0.4,1.3,0
	c0.4-0.4,0.4-1,0-1.3L-24.2,393.2L-24.2,393.2z"/>
<path class="st0" d="M-32.9,406.6c-1-1-2.4-1.3-3.6-0.9l2.9,3.1c0.4,0.4,0.3,1,0,1.3c-0.4,0.4-1,0.3-1.3,0l-3.1-3.3l-2.9,2.8
	l3.1,3.3c0.4,0.4,0.3,1,0,1.3c-0.4,0.4-1,0.3-1.3,0l-3.1-3.3l-2.9,2.8l3.1,3.3c0.4,0.4,0.3,1,0,1.3c-0.4,0.4-1,0.3-1.3,0l-3.1-3.3
	l-2.9,2.8l3.1,3.3c0.4,0.4,0.3,1,0,1.3c0,0,0,0,0,0c-0.4,0.4-1,0.3-1.3,0c0,0,0,0,0,0L-51,419l-2.9,2.8l3.1,3.3c0.4,0.4,0.3,1,0,1.3
	c-0.4,0.4-1,0.3-1.3,0c0,0,0,0,0,0l-3.1-3.3l-2.9,2.8l3.1,3.3c0.4,0.4,0.3,1,0,1.3c-0.4,0.4-1,0.3-1.3,0c0,0,0,0,0,0l-3.1-3.3
	l-2.9,2.8l3.1,3.3c0.4,0.4,0.3,1,0,1.3c-0.4,0.4-1,0.3-1.3,0l-3.1-3.3l-2.9,2.8l3.1,3.3c0.4,0.4,0.3,1,0,1.3c-0.4,0.4-1,0.3-1.3,0
	l-3.1-3.3c-1,1.3-1,3.1,0.2,4.4l10.4,11c1.3,1.3,3.4,1.4,4.7,0.2l30.2-28.5c1.3-1.2,1.4-3.3,0.1-4.7L-32.9,406.6L-32.9,406.6z"/>
<path d="M15.1,408.6c-0.7-0.3-0.4-0.6-0.7-0.8L-22,369.9c-0.9-0.9-2-1.4-3.2-1.5c-1.2-0.1-2.4,0.3-3.2,1.2c-1.5,1.4-1.7,3.7-0.6,5.6
	c0.2,0.3,0.4,0.6,0.6,0.8l4.1,4.3c-0.1,0.1-0.1,0.1-0.2,0.2L-78.2,432c-2.3,2.2-2.8,5.9-1.1,8.6c0.3,0.4,0.6,0.8,0.9,1.1l5.7,5.9
	l-0.4,0.3c-0.7,0.7-0.8,1.8-0.1,2.8c0.1,0.2,0.2,0.3,0.4,0.5l0.3,0.3l-23.9,22.9l-0.7,4.8c-0.1,0.9,1,1.5,1.6,0.8l26.2-25.2l0.4,0.4
	c0.4,0.4,1,0.7,1.5,0.7c0.6,0,1.1-0.2,1.5-0.6l0.4-0.3l5.7,6c2.6,2.7,7,2.8,9.7,0.2l53.8-51.7c0.1-0.1,0.1-0.1,0.2-0.2l4.2,4.4
	c0.9,0.9,2,1.4,3.2,1.5c1.2,0.1,2.4-0.3,3.3-1.1C15.9,412.7,16.4,410.5,15.1,408.6L15.1,408.6z M-1,404.8l-53.8,51.7
	c-0.1,0.1-0.1,0.1-0.2,0c0,0,0,0,0,0l-18.5-19.3c-0.1-0.1-0.1-0.1,0-0.2c0,0,0,0,0,0l53.8-51.7c0,0,0.1,0,0.1,0c0,0,0.1,0,0.1,0
	L-1,404.6c0,0,0,0,0,0C-1,404.6-1,404.7-1,404.8"/>
</svg>
