<?xml version="1.0" encoding="utf-8"?>
<!-- Generator: Adobe Illustrator 19.0.0, SVG Export Plug-In . SVG Version: 6.00 Build 0)  -->
<svg version="1.1" id="图层_1" xmlns="http://www.w3.org/2000/svg" xmlns:xlink="http://www.w3.org/1999/xlink" x="0px" y="0px"
	 viewBox="-123.9 335.9 170.1 170.1" style="enable-background:new -123.9 335.9 170.1 170.1;" xml:space="preserve">
<style type="text/css">
	.st0{fill:#F4EB9F;}
</style>
<path d="M29.3,400.2c0-24.5-30.5-44.3-68.2-44.3s-68.2,19.8-68.2,44.3c0,7.8,3.1,15,8.5,21.4c0.2,35.5,26.8,64.3,59.6,64.3
	c32.7,0,59.3-28.6,59.6-64C26.1,415.5,29.3,408.1,29.3,400.2z"/>
<path class="st0" d="M-39.1,475.8c-24.8,0-45.5-19.6-49.6-45.3c0.1,0,0.1,0.1,0.2,0.1c-0.5-3-0.8-6.2-0.8-9.3
	c0-30.1,22.6-54.6,50.3-54.6c1.3,0,2.5,0.1,3.7,0.2c25.9,2.2,46.4,25.7,46.4,54.4C11.3,451.3-11.3,475.8-39.1,475.8L-39.1,475.8z"/>
<path d="M-22,451.9c-2.8-3.1-9.8-9.8-16.6-3c-0.2,0-0.3,0-0.5,0c-0.1,0-0.2,0-0.3,0c-6.8-6.8-13.7-0.1-16.6,3
	c-2.9,3.2-5,6.3-11.4,7.2c11.6,5.7,18.1,3.2,21.4,0c0.7-0.7,1.3-1.4,1.8-2.2c1.2-1.2,3.1-2,5.2-2c2.4,0,4.5,1,5.7,2.6c0,0,0,0,0,0
	c0.4,0.6,0.9,1.1,1.4,1.6c3.3,3.2,9.8,5.7,21.4,0C-17,458.2-19.2,455.1-22,451.9z"/>
<path d="M-16.1,402c-9.2,0-17,6.6-18.8,15.3h-8.9c-1.8-8.7-9.6-15.3-18.8-15.3c-10.6,0-19.2,8.6-19.2,19.2s8.6,19.2,19.2,19.2
	c9.6,0,17.6-7.1,19-16.4h8.5c1.4,9.2,9.4,16.4,19,16.4c10.6,0,19.2-8.6,19.2-19.2S-5.5,402-16.1,402L-16.1,402z"/>
<path class="st0" d="M-62.6,435.1c-7.6,0-13.8-6.2-13.8-13.8s6.2-13.8,13.8-13.8s13.8,6.2,13.8,13.8
	C-48.8,428.9-55,435.1-62.6,435.1z"/>
<path class="st0" d="M-16.1,435.1c-7.6,0-13.8-6.2-13.8-13.8s6.2-13.8,13.8-13.8c7.6,0,13.8,6.2,13.8,13.8
	C-2.2,428.9-8.4,435.1-16.1,435.1z"/>
</svg>
