<?xml version="1.0" encoding="utf-8"?>
<!-- Generator: Adobe Illustrator 19.0.0, SVG Export Plug-In . SVG Version: 6.00 Build 0)  -->
<svg version="1.1" id="图层_1" xmlns="http://www.w3.org/2000/svg" xmlns:xlink="http://www.w3.org/1999/xlink" x="0px" y="0px"
	 viewBox="-212 335.8 170.1 170.1" style="enable-background:new -212 335.8 170.1 170.1;" xml:space="preserve">
<style type="text/css">
	.st0{fill:#23C9A9;}
	.st1{fill:#FFFFFF;}
</style>
<path class="st0" d="M-92.9,429.5c-0.3,0-0.6,0-1,0l0,0c-3.7-2.5-7.8-4.6-12.6-6.4l0,0c8.5-6.2,14-16.3,14-27.6
	c0-18.9-15.4-34.3-34.3-34.3s-34.3,15.4-34.3,34.3c0,11.5,5.7,21.6,14.3,27.8l0,0c-39.5,14.2-39.5,56.8-39.5,56.8h8.5
	c0,0,4.4-50.9,50.9-50.9c8,0,14.8,1.5,20.5,4c-7.3,4.5-12.2,12.5-12.2,21.7c0,14.1,11.4,25.5,25.5,25.5c6.2,0,11.8-2.2,16.2-5.9
	c3-2.5,5.5-5.8,7.1-9.4c1.4-3.1,2.1-6.6,2.1-10.2C-67.4,440.9-78.8,429.5-92.9,429.5z M-126.7,421.3c-14.2,0-25.8-11.6-25.8-25.8
	c0-14.2,11.6-25.8,25.8-25.8s25.8,11.6,25.8,25.8C-100.9,409.8-112.5,421.3-126.7,421.3z"/>
<path class="st1" d="M-80.1,459.5h-23.7c-2.4,0-4.3-1.9-4.3-4.3l0,0c0-2.4,1.9-4.3,4.3-4.3h23.7c2.4,0,4.3,1.9,4.3,4.3l0,0
	C-75.8,457.6-77.7,459.5-80.1,459.5z"/>
</svg>
