<?xml version="1.0" encoding="utf-8"?>
<!-- Generator: Adobe Illustrator 19.0.0, SVG Export Plug-In . SVG Version: 6.00 Build 0)  -->
<svg version="1.1" id="图层_1" xmlns="http://www.w3.org/2000/svg" xmlns:xlink="http://www.w3.org/1999/xlink" x="0px" y="0px"
	 viewBox="-212 335.8 170.1 170.1" style="enable-background:new -212 335.8 170.1 170.1;" xml:space="preserve">
<style type="text/css">
	.st0{fill:#11D1B5;}
	.st1{fill:#D825B6;}
</style>
<path class="st0" d="M-140.7,374.9c3.1,0,6-1.2,8.1-3.5c2.2-2.1,3.5-5.1,3.5-8.1c0-3.1-1.2-6-3.5-8.1c-4.5-4.5-11.8-4.5-16.3,0
	c-2.2,2.1-3.5,5.1-3.5,8.1c0,3.1,1.2,6,3.5,8.1C-146.7,373.7-143.8,375-140.7,374.9z"/>
<path class="st1" d="M-132.5,480.4c-9.5,0.2-18.6-3.5-25.3-10.4c-6.8-6.8-10.6-16.1-10.4-25.7c-0.2-10.5,4.5-20.6,12.6-27.2
	l-0.8-11.2c-6.4,4.1-11.6,9.8-15.3,16.4c-3.8,6.7-5.8,14.3-5.8,22c-0.2,12.2,4.5,23.9,13.2,32.4c8.3,8.6,19.8,13.3,31.7,13.1
	c8.9,0,17.5-2.9,24.5-8.3c7.4-5.2,13.1-12.4,16.7-20.7l-6.9-9.2c-1.5,8-5.7,15.3-12,20.6C-116.4,477.6-124.3,480.5-132.5,480.4
	L-132.5,480.4z"/>
<path class="st0" d="M-62.4,458.3h-5.9l-23-31.7c-3.2-5.6-7-8.4-11.5-8.4h-25.8v-11.5h23c4.1,0,6.2-1.4,6.2-4.3s-2.1-4.3-6.2-4.3
	h-23v-11.5c-0.4-5.8-4.2-8.6-11.5-8.4c-5.8,0.2-8.7,3-8.7,8.4v40.1c0.6,5.8,4.4,8.7,11.5,8.7h34.5l20.2,25.8l5.6,8.7h14.6
	c1.5,0,2.9-0.6,3.9-1.7c2.2-2.2,2.2-5.9,0-8.1C-59.5,458.8-60.9,458.2-62.4,458.3L-62.4,458.3z"/>
</svg>
